<svg id="Group_198" data-name="Group 198" xmlns="http://www.w3.org/2000/svg" xmlns:xlink="http://www.w3.org/1999/xlink" width="104.133" height="26.274" viewBox="0 0 104.133 26.274">
  <defs>
    <clipPath id="clip-path">
      <rect id="Rectangle_302" data-name="Rectangle 302" width="104.133" height="26.274" fill="none"/>
    </clipPath>
  </defs>
  <g id="Group_197" data-name="Group 197" clip-path="url(#clip-path)">
    <path id="Path_184" data-name="Path 184" d="M6.581,84.525a2.234,2.234,0,0,0-1.57,1.6,24.83,24.83,0,0,0-.51,7.171c.006.143,0,.286,0,.532-.287-.2-.541-.358-.763-.548A10.6,10.6,0,0,1,.471,87.705a12.876,12.876,0,0,1,.109-7.272c.059-.185.132-.366.221-.611,1.557.595,3.093,1.118,4.577,1.762,2.519,1.091,5.025,2.217,7.5,3.41A4.7,4.7,0,0,1,14.6,92.349,12.791,12.791,0,0,1,11.01,95.7a5.018,5.018,0,0,1-1.537.644,2.543,2.543,0,0,1-3.029-1.688,9.143,9.143,0,0,1-.48-4.75c.141-1.254.432-2.491.6-3.743a12.36,12.36,0,0,0,.012-1.639" transform="translate(0 -71.148)" fill="#1a1818"/>
    <path id="Path_185" data-name="Path 185" d="M75.666,16.48c1.737-3.562,3.608-6.824,6.976-8.9a4.6,4.6,0,0,1,1.591-.639,2.528,2.528,0,0,1,2.786,1.526,7.975,7.975,0,0,1,.811,4.1,9.1,9.1,0,0,1-1.077,3.887,4.119,4.119,0,0,1-4.959,2.15c-2.063-.546-4.048-1.39-6.129-2.124" transform="translate(-67.443 -6.148)" fill="#1a1818"/>
    <path id="Path_186" data-name="Path 186" d="M487.046,88l1.565-1.922c.156.112.272.192.385.276a4.614,4.614,0,0,0,3.97.719,2.712,2.712,0,0,0,.651-.262.829.829,0,0,0,.5-.879.75.75,0,0,0-.71-.7,16.329,16.329,0,0,0-1.775-.059c-.812,0-1.625.075-2.434.038a1.746,1.746,0,0,1-1.741-1.29,1.774,1.774,0,0,1,.837-1.954c.142-.1.293-.2.473-.316a1.685,1.685,0,0,0-.193-.213,3.828,3.828,0,0,1-1.419-4.349,3.922,3.922,0,0,1,3.313-2.838,4.954,4.954,0,0,1,3.027.308.474.474,0,0,0,.676-.192c.2-.273.436-.522.7-.829l1.721,1.608-1.065.805a14.9,14.9,0,0,1,.455,1.864,3.924,3.924,0,0,1-4.676,4.53,2.707,2.707,0,0,0-1.171.259c-.112.037-.26.29-.224.372a.532.532,0,0,0,.388.289c.575-.015,1.149-.12,1.724-.126a13.1,13.1,0,0,1,2.419.087,2.389,2.389,0,0,1,2.057,1.839,2.883,2.883,0,0,1-.8,3.029,5.454,5.454,0,0,1-3.15,1.31,7.63,7.63,0,0,1-5.493-1.4m6.393-9.717a1.918,1.918,0,0,0-1.883-2.074,2.075,2.075,0,0,0-.011,4.148,1.828,1.828,0,0,0,1.894-2.074" transform="translate(-434.053 -65.545)" fill="#1a1818"/>
    <path id="Path_187" data-name="Path 187" d="M318,57.324c-.91,0-1.757.016-2.6-.016-.134-.005-.322-.2-.381-.344-.3-.737-.573-1.483-.821-2.237a.519.519,0,0,0-.591-.411q-2.117.021-4.235,0a.543.543,0,0,0-.625.439c-.225.724-.513,1.428-.733,2.153-.1.313-.222.437-.56.426-.794-.026-1.59-.008-2.466-.008.122-.346.217-.646.332-.938q2.667-6.757,5.335-13.514c.148-.377.274-.643.783-.629a.8.8,0,0,1,.842.629q2.741,6.958,5.521,13.9c.065.163.121.33.2.549m-6.454-10.283-.161-.013-1.72,5.253h3.594l-1.713-5.241" transform="translate(-271.846 -37.653)" fill="#1a1818"/>
    <path id="Path_188" data-name="Path 188" d="M815.158,37.915v5.191a19.264,19.264,0,0,1,2.01-.638,4.653,4.653,0,0,1,2.811.345,3.429,3.429,0,0,1,2.152,3.2c.091,2.457.025,4.919.025,7.418h-2.47c-.009-.2-.025-.4-.025-.591,0-1.991,0-3.982,0-5.973a2.079,2.079,0,0,0-1.488-2.2,2.779,2.779,0,0,0-2.849.834,1.109,1.109,0,0,0-.141.607c-.009,2.226-.005,4.453-.007,6.679,0,.212-.018.424-.029.659h-2.5c-.009-.18-.025-.338-.025-.5,0-4.634.006-9.268-.012-13.9,0-.439.141-.6.552-.673.636-.114,1.262-.285,2-.456" transform="translate(-724.3 -33.795)" fill="#1a1818"/>
    <path id="Path_189" data-name="Path 189" d="M702.934,43.932V52.9c.4,0,.752.012,1.1,0,.3-.014.441.093.412.405-.014.143,0,.289,0,.434-.016.376.09.852-.1,1.095-.147.189-.667.106-1.021.108-.313,0-.4.138-.395.431.013.922,0,1.845,0,2.768v.619h-2.525c0-1.066-.026-2.111.011-3.154.019-.524-.147-.679-.67-.671-1.827.029-3.654.011-5.481.011h-.619a2.435,2.435,0,0,1,.453-2.093q3.666-4.18,7.214-8.462a1.531,1.531,0,0,1,1.613-.455m-6.353,8.911c.223.028.342.055.46.055.956,0,1.913-.018,2.869.01.421.012.517-.148.51-.536-.021-1.136-.006-2.273-.01-3.41,0-.143-.032-.286-.064-.548l-3.766,4.428" transform="translate(-618.235 -39.12)" fill="#1a1818"/>
    <path id="Path_190" data-name="Path 190" d="M595.236,84.11a6.27,6.27,0,0,1-.9,3.757,5,5,0,0,1-5.184,2.091c-2.91-.349-4.227-2.577-4.354-5.124a5.435,5.435,0,0,1,2.065-5,5.378,5.378,0,0,1,5.615-.494,4.657,4.657,0,0,1,2.717,4.195c.018.18.029.361.046.573m-7.929.307.105.03c.02.342.026.687.064,1.027a2.49,2.49,0,0,0,2.332,2.479,2.451,2.451,0,0,0,2.627-2.024,6.055,6.055,0,0,0-.044-3.265,2.274,2.274,0,0,0-2.191-1.776,2.308,2.308,0,0,0-2.352,1.406,14.886,14.886,0,0,0-.542,2.123" transform="translate(-521.233 -70.22)" fill="#1a1818"/>
    <path id="Path_191" data-name="Path 191" d="M20.356,9.6c-1.578-.694-3.278-1.435-4.969-2.2a.447.447,0,0,1-.153-.411,7.485,7.485,0,0,1,.813-1.643A12.611,12.611,0,0,1,26.883.008c.231.007.461.056.848.106a19.85,19.85,0,0,0-4.217,4.334C22.42,6.076,21.455,7.792,20.356,9.6" transform="translate(-13.57 0)" fill="#1a1818"/>
    <path id="Path_192" data-name="Path 192" d="M108.427,173.107a2.882,2.882,0,0,1,.249-.275,34.953,34.953,0,0,0,5.031-5.383,5.735,5.735,0,0,1,3.358-2.414,7.172,7.172,0,0,1,4.245.712c-.683,4-8.561,8.5-12.883,7.36" transform="translate(-96.644 -147.012)" fill="#1a1818"/>
    <path id="Path_193" data-name="Path 193" d="M195.486,32.24c.553.547,1.066.978,1.486,1.485a12.1,12.1,0,0,1,2.617,7,15.343,15.343,0,0,1-.331,4.531c-.135.608-.325.731-.946.607a4.983,4.983,0,0,1-3.681-4.627c.019-1.48.194-2.959.327-4.436.118-1.315.274-2.627.416-3.94.017-.158.056-.313.112-.618" transform="translate(-173.48 -28.736)" fill="#1a1818"/>
    <path id="Path_194" data-name="Path 194" d="M444.867,37.976v.741q0,5.507,0,11.014,0,.325.011.651a2.23,2.23,0,0,0,1.129,2.174,2.041,2.041,0,0,1-2.2,1.074,1.526,1.526,0,0,1-1.347-1.412,5.673,5.673,0,0,1-.1-1.074c-.007-4.015,0-8.03-.016-12.045,0-.434.136-.6.547-.672.635-.113,1.26-.284,1.977-.451" transform="translate(-394.274 -33.849)" fill="#1a1818"/>
    <path id="Path_195" data-name="Path 195" d="M921.19,82.4h-1.417c0-.625-.015-1.2.014-1.77a.415.415,0,0,1,.292-.282c1.191-.02,2.382-.013,3.612-.013v10.91h-2.5Z" transform="translate(-819.817 -71.601)" fill="#1a1818"/>
    <path id="Path_196" data-name="Path 196" d="M932.786,44.159a1.4,1.4,0,0,1-1.389-1.531,1.464,1.464,0,0,1,1.49-1.4,1.551,1.551,0,0,1,1.426,1.5,1.478,1.478,0,0,1-1.527,1.431" transform="translate(-830.181 -36.746)" fill="#1a1818"/>
  </g>
</svg>
