<svg id="Group_241" data-name="Group 241" xmlns="http://www.w3.org/2000/svg" xmlns:xlink="http://www.w3.org/1999/xlink" width="21.368" height="19.047" viewBox="0 0 21.368 19.047">
  <defs>
    <clipPath id="clip-path">
      <rect id="Rectangle_242" data-name="Rectangle 242" width="21.368" height="19.047" fill="#585858"/>
    </clipPath>
  </defs>
  <g id="Group_109" data-name="Group 109" transform="translate(0 0)" clip-path="url(#clip-path)">
    <path id="Path_143" data-name="Path 143" d="M3.669,1.692h2V.231c0-.325,1.557-.214,1.836-.167a.959.959,0,0,1,.167.25V1.692h2V.231c0-.149.33-.2.454-.214.251-.025,1.549-.067,1.549.214v1.46h2V.315a.959.959,0,0,1,.167-.25c.279-.048,1.836-.158,1.836.167v1.46h1.46c.106,0,.2.261.213.371.149,1.1-.119,2.535,0,3.676a.345.345,0,0,1-.591.153c-.167-.265-.035-.874-.077-1.2H.665V15.377H2.71c.089,0,.41.435.153.591a10.155,10.155,0,0,1-2.748,0A.323.323,0,0,1,0,15.75L.041,1.86a.745.745,0,0,1,.166-.168h1.46V.231C1.667-.094,3.224.017,3.5.064a.959.959,0,0,1,.167.25ZM3,.69H2.334v2H3Zm4.006,0H6.34v2h.668Zm4.006,0h-.668v2h.668Zm4.006,0h-.668v2h.668ZM.665,2.359V4.028H16.687V2.359h-1c-.02.238.092.829-.186.946-.242.1-1.612.12-1.74-.084l-.076-.863h-2c-.014.225.068.794-.139.925a3.214,3.214,0,0,1-1.787-.062l-.076-.863h-2c-.014.225.068.794-.139.925a3.214,3.214,0,0,1-1.787-.062l-.076-.863h-2c.01.521.074.946-.537,1.007-.907.091-1.7.155-1.465-1.007Z" transform="translate(0 0)" fill="#585858"/>
    <path id="Path_144" data-name="Path 144" d="M17.425,73.305a.4.4,0,0,1-.377.287.307.307,0,0,1-.273-.221c-.109-.365.07-2.359-.017-2.445-1.353.121-1.371-.782,0-.715V67.588c-1.347.18-1.37-.866,0-.667.086-.087-.093-2.08.017-2.445a.308.308,0,0,1,.273-.221c.143-.013.377.151.377.287v2.378h3.338V64.46c0-.256.668-.258.668.083v2.378h3.338V64.543a.323.323,0,0,1,.577-.16c.249.356,0,2.016.09,2.538h1.711a.757.757,0,0,1,.186.107c.508.969-1.73.393-1.9.561-.115.523.364,2.3-.561,1.9a.757.757,0,0,1-.107-.187V67.589H21.431v2.67H24.56c.18,0,.335.668-.167.668H21.431v2.378c0,.342-.668.339-.668.083V70.927H17.425c-.085.721.114,1.691,0,2.378m3.338-5.716H17.425v2.67h3.338Z" transform="translate(-14.424 -58.887)" fill="#585858"/>
    <path id="Path_145" data-name="Path 145" d="M58.866,82.85a1.018,1.018,0,0,1,.106-.186c.96-.466.37,1.222.6,1.566a5.352,5.352,0,1,1-6.189,7.505l-7.25-.075-.113-.214c-.013-.143.151-.377.287-.377h6.8a5.363,5.363,0,0,1,5.758-6.926c.046-.4-.063-.915,0-1.293m-1.354,1.9a4.705,4.705,0,1,0,3.734,8.24,4.731,4.731,0,0,0-3.734-8.24" transform="translate(-42.179 -75.693)" fill="#585858"/>
    <path id="Path_146" data-name="Path 146" d="M172.305,66.511a.378.378,0,0,1-.423.027c-.207-.135-.177-1.663-.121-1.952a.327.327,0,0,1,.571-.19,5.236,5.236,0,0,1-.027,2.115" transform="translate(-157.39 -58.914)" fill="#585858"/>
    <path id="Path_147" data-name="Path 147" d="M148.491,116.349c4.823-.451,6.039,6.634,1.419,7.844-5.594,1.465-7.068-7.315-1.419-7.844m-.253.664c-3.619.523-3.6,6.145,0,6.633,5.288.717,5.168-7.379,0-6.633" transform="translate(-132.822 -106.621)" fill="#585858"/>
    <path id="Path_148" data-name="Path 148" d="M172.305,144.988l.2-.084,1.324.883c.113,0,.962-1.064,1.234-1.177.329-.136.6.141.4.487-.05.084-1.294,1.329-1.378,1.378-.054.032-.1.085-.168.077a9.082,9.082,0,0,1-1.583-1.09.341.341,0,0,1-.026-.474" transform="translate(-157.85 -132.51)" fill="#585858"/>
  </g>
</svg>
