<svg xmlns="http://www.w3.org/2000/svg" width="18.967" height="19.457" viewBox="0 0 18.967 19.457">
  <g id="SVGRepo_iconCarrier" transform="translate(-1.499 -1.5)">
    <path id="Path_21" data-name="Path 21" d="M3.357,2l3.268.122A1.765,1.765,0,0,1,8.189,3.264l.966,2.456a1.94,1.94,0,0,1-.161,1.739L7.756,9.417a22.514,22.514,0,0,0,4.838,5.1l1.574-1a1.682,1.682,0,0,1,1.332-.209l3.13.825a1.847,1.847,0,0,1,1.328,1.941l-.2,2.753A1.645,1.645,0,0,1,18,20.445C5.945,19-1.126,2,3.357,2Z" transform="translate(0 0)" fill="none" stroke="#5fef5c" stroke-linecap="round" stroke-linejoin="round" stroke-width="1"/>
  </g>
</svg>
