<svg xmlns="http://www.w3.org/2000/svg" width="20.19" height="18.68" viewBox="0 0 20.19 18.68">
  <g id="SVGRepo_iconCarrier" transform="translate(-2.335 -2.861)">
    <path id="Path_22" data-name="Path 22" d="M3.03,10.415l7.54,5.118a4.716,4.716,0,0,0,1.372.77,2.068,2.068,0,0,0,.977,0,4.716,4.716,0,0,0,1.372-.77l7.54-5.118m-11.183-6.3L4.57,7.983A4.616,4.616,0,0,0,3.5,8.777a2.134,2.134,0,0,0-.407.746A4.739,4.739,0,0,0,3,10.863V17.64a5.349,5.349,0,0,0,.228,2.24,2.11,2.11,0,0,0,.916.929,5.139,5.139,0,0,0,2.209.232H18.508a5.139,5.139,0,0,0,2.209-.232,2.11,2.11,0,0,0,.916-.929,5.349,5.349,0,0,0,.228-2.24V10.863a4.74,4.74,0,0,0-.1-1.339,2.134,2.134,0,0,0-.407-.746,4.615,4.615,0,0,0-1.067-.794l-6.077-3.87a4.67,4.67,0,0,0-1.317-.7,2.068,2.068,0,0,0-.932,0A4.67,4.67,0,0,0,10.647,4.113Z" transform="translate(0 0)" fill="none" stroke="#5fef5c" stroke-linecap="round" stroke-linejoin="round" stroke-width="1"/>
  </g>
</svg>
