<svg xmlns="http://www.w3.org/2000/svg" width="35.881" height="25.808" viewBox="0 0 35.881 25.808">
  <g id="Icon_feather-youtube" data-name="Icon feather-youtube" transform="translate(-0.499 -5)">
    <path id="Path_18" data-name="Path 18" d="M34.671,9.727a4.281,4.281,0,0,0-2.988-3.08C29.034,6,18.44,6,18.44,6S7.845,6,5.2,6.708a4.281,4.281,0,0,0-2.988,3.08A44.659,44.659,0,0,0,1.5,17.935a44.659,44.659,0,0,0,.708,8.208A4.281,4.281,0,0,0,5.2,29.1c2.649.708,13.244.708,13.244.708s10.595,0,13.244-.708a4.281,4.281,0,0,0,2.988-3.08,44.658,44.658,0,0,0,.708-8.085,44.658,44.658,0,0,0-.708-8.208Z" fill="none" stroke="#ecf4ff" stroke-linecap="round" stroke-linejoin="round" stroke-width="2"/>
    <path id="Path_19" data-name="Path 19" d="M14.625,22.791l8.855-5.036L14.625,12.72V22.791Z" transform="translate(0.35 0.179)" fill="none" stroke="#ecf4ff" stroke-linecap="round" stroke-linejoin="round" stroke-width="2"/>
  </g>
</svg>
