<svg xmlns="http://www.w3.org/2000/svg" width="26.497" height="26.502" viewBox="0 0 26.497 26.502">
  <path id="Icon_akar-instagram-fill" data-name="Icon akar-instagram-fill" d="M9.287,1.58c1.413-.065,1.863-.08,5.462-.08s4.049.016,5.461.08a9.748,9.748,0,0,1,3.218.616A6.783,6.783,0,0,1,27.3,6.07a9.747,9.747,0,0,1,.617,3.216c.065,1.415.079,1.866.079,5.464s-.016,4.05-.079,5.463a9.716,9.716,0,0,1-.617,3.216,6.764,6.764,0,0,1-3.873,3.875,9.742,9.742,0,0,1-3.216.617c-1.414.065-1.864.08-5.463.08s-4.049-.016-5.462-.08a9.711,9.711,0,0,1-3.216-.617,6.5,6.5,0,0,1-2.347-1.527,6.5,6.5,0,0,1-1.528-2.347,9.782,9.782,0,0,1-.615-3.216C1.514,18.8,1.5,18.349,1.5,14.751s.016-4.05.079-5.462A9.753,9.753,0,0,1,2.195,6.07a6.5,6.5,0,0,1,1.53-2.347A6.494,6.494,0,0,1,6.07,2.2,9.777,9.777,0,0,1,9.285,1.58ZM20.1,3.965c-1.4-.064-1.816-.077-5.354-.077s-3.956.013-5.354.077a7.321,7.321,0,0,0-2.461.457A4.376,4.376,0,0,0,4.421,6.935,7.325,7.325,0,0,0,3.964,9.4c-.064,1.4-.077,1.817-.077,5.355s.013,3.957.077,5.355a7.325,7.325,0,0,0,.456,2.461,4.376,4.376,0,0,0,2.514,2.514,7.322,7.322,0,0,0,2.461.457c1.4.064,1.815.077,5.354.077s3.956-.013,5.354-.077a7.322,7.322,0,0,0,2.461-.457,4.376,4.376,0,0,0,2.514-2.514,7.326,7.326,0,0,0,.456-2.461c.064-1.4.077-1.817.077-5.355S25.6,10.794,25.533,9.4a7.325,7.325,0,0,0-.456-2.461,4.376,4.376,0,0,0-2.514-2.514A7.321,7.321,0,0,0,20.1,3.965ZM13.056,18.836a4.421,4.421,0,1,0-2.727-4.085,4.419,4.419,0,0,0,2.727,4.085Zm-3.123-8.9a6.81,6.81,0,1,1,0,9.632,6.809,6.809,0,0,1,0-9.632Zm13.135-.981a1.61,1.61,0,1,0-2.244-.033A1.611,1.611,0,0,0,23.069,8.954Z" transform="translate(-1.5 -1.5)" fill="#ecf4ff"/>
</svg>
