<svg xmlns="http://www.w3.org/2000/svg" width="27.636" height="27.636" viewBox="0 0 27.636 27.636">
  <g id="Icon_ion-social-linkedin-outline" data-name="Icon ion-social-linkedin-outline" transform="translate(-4.5 -4.5)">
    <path id="Path_15" data-name="Path 15" d="M12.945,27.429V15.112H8.993V27.429ZM11.117,13.247a2.044,2.044,0,0,0,2.138-2.124A2.039,2.039,0,0,0,11.138,9,2.045,2.045,0,0,0,9,11.124a2.032,2.032,0,0,0,2.088,2.124Z" transform="translate(0.107 0.107)" fill="#ecf4ff"/>
    <path id="Path_16" data-name="Path 16" d="M22.717,14.7a4.008,4.008,0,0,0-3.571,2V14.983H15.188v12.31h3.959V20.281a2.642,2.642,0,0,1,.137-.972,2.166,2.166,0,0,1,2.03-1.461c1.433,0,2.008,1.1,2.008,2.714v6.731h3.959V20.1c0-3.693-1.958-5.406-4.564-5.406Z" transform="translate(0.254 0.243)" fill="#ecf4ff"/>
    <path id="Path_17" data-name="Path 17" d="M29.926,4.5H6.861A2.255,2.255,0,0,0,4.5,6.652V29.767a2.432,2.432,0,0,0,2.361,2.368H29.919a2.308,2.308,0,0,0,2.217-2.368V6.652A2.119,2.119,0,0,0,29.926,4.5ZM29.7,29.839H7.027a.22.22,0,0,1-.223-.223V6.948A.149.149,0,0,1,6.948,6.8H29.7a.155.155,0,0,1,.144.144V29.7A.155.155,0,0,1,29.7,29.839Z" fill="#ecf4ff"/>
  </g>
</svg>
