<svg xmlns="http://www.w3.org/2000/svg" width="15.58" height="15.58" viewBox="0 0 15.58 15.58">
  <g id="Icon_akar-trophy" data-name="Icon akar-trophy" transform="translate(0.5 0.5)">
    <path id="Path_56" data-name="Path 56" d="M7.5,4.458A1.458,1.458,0,0,1,8.958,3h7.29a1.458,1.458,0,0,1,1.458,1.458V8.1a5.1,5.1,0,0,1-5.1,5.1h0A5.1,5.1,0,0,1,7.5,8.1ZM10.416,17.58H14.79L12.6,13.935Z" transform="translate(-5.313 -3)" fill="none" stroke="#fff" stroke-linecap="round" stroke-linejoin="round" stroke-width="1"/>
    <path id="Path_57" data-name="Path 57" d="M5.187,6H4.458A1.458,1.458,0,0,0,3,7.458v.9a2.916,2.916,0,0,0,1.551,2.577l1,.529M15.393,6h.729A1.458,1.458,0,0,1,17.58,7.458v.464a3.645,3.645,0,0,1-1.939,3.222l-.612.324" transform="translate(-3 -4.542)" fill="none" stroke="#fff" stroke-linejoin="round" stroke-width="1"/>
  </g>
</svg>
