<svg xmlns="http://www.w3.org/2000/svg" width="1873" height="1955" viewBox="0 0 1873 1955" version="1.1"><path d="M 994.976 157.853 C 987.564 161.622, 979.700 165.736, 977.500 166.994 C 975.300 168.253, 971.475 170.402, 969 171.771 C 966.525 173.140, 963.825 174.820, 963 175.505 C 962.175 176.190, 958.399 178.380, 954.608 180.371 C 950.818 182.362, 947.218 184.395, 946.608 184.889 C 945.262 185.980, 938.973 189.619, 933.386 192.540 C 931.123 193.723, 927.748 195.849, 925.886 197.265 C 924.024 198.681, 919.199 201.514, 915.165 203.560 C 907.995 207.196, 904.494 211, 906.577 212.893 C 907.085 213.354, 910.134 215.152, 913.352 216.888 C 916.571 218.624, 921.071 221.318, 923.352 222.874 C 925.634 224.430, 927.950 225.883, 928.500 226.102 C 929.683 226.574, 938.052 231.563, 946.612 236.900 C 949.974 238.996, 954.137 241.335, 955.862 242.099 C 957.588 242.863, 959 243.828, 959 244.244 C 959 244.660, 959.640 245, 960.423 245 C 961.205 245, 966.718 247.990, 972.673 251.644 C 978.628 255.299, 985.413 259.349, 987.750 260.644 C 1006.384 270.972, 1008.006 271.911, 1012.495 274.969 C 1014.698 276.470, 1021.450 280.326, 1027.500 283.539 C 1033.550 286.752, 1041.425 291.251, 1045 293.536 C 1048.575 295.822, 1054.650 299.388, 1058.500 301.461 C 1062.350 303.534, 1067.075 306.190, 1069 307.363 C 1070.925 308.537, 1073.660 310.172, 1075.077 310.998 C 1076.494 311.824, 1080.769 314.346, 1084.577 316.603 C 1088.385 318.859, 1095.550 322.948, 1100.500 325.688 C 1105.450 328.428, 1112.425 332.468, 1116 334.665 C 1119.575 336.862, 1126.478 340.799, 1131.340 343.412 C 1136.201 346.025, 1142.276 349.456, 1144.840 351.035 C 1149.207 353.726, 1165.163 362.942, 1172.995 367.298 C 1174.917 368.366, 1178.292 370.467, 1180.495 371.966 C 1182.698 373.464, 1188.100 376.625, 1192.500 378.990 C 1206.579 386.558, 1209.349 388.144, 1213.648 391.102 C 1215.965 392.696, 1218.194 394, 1218.601 394 C 1219.009 394, 1220.053 394.612, 1220.921 395.360 C 1221.790 396.108, 1226.951 399.069, 1232.392 401.940 C 1244.712 408.442, 1246.376 409.365, 1247 410.045 C 1247.756 410.868, 1265.436 421.120, 1274.500 425.991 C 1278.900 428.355, 1284.381 431.574, 1286.680 433.145 C 1288.979 434.715, 1291.342 436, 1291.930 436 C 1292.519 436, 1293 436.340, 1293 436.756 C 1293 437.172, 1294.463 438.158, 1296.250 438.948 C 1299.987 440.599, 1314.472 448.825, 1324.025 454.721 C 1327.613 456.936, 1335.488 461.349, 1341.525 464.528 C 1361.508 475.053, 1370.984 482.669, 1373.946 490.585 C 1375.978 496.017, 1375.991 497.156, 1376.005 683.592 C 1376.018 851.105, 1375.852 871.794, 1374.443 877.317 C 1371.086 890.481, 1363.475 897.787, 1335.991 914.231 C 1331.871 916.696, 1325.350 920.654, 1321.500 923.027 C 1317.650 925.400, 1311.125 929.116, 1307 931.285 C 1302.875 933.454, 1298.600 936.007, 1297.500 936.957 C 1296.400 937.907, 1293.475 939.806, 1291 941.176 C 1288.525 942.546, 1284.700 944.715, 1282.500 945.995 C 1280.300 947.276, 1275.350 949.973, 1271.500 951.987 C 1267.650 954.002, 1262.025 957.231, 1259 959.163 C 1255.975 961.096, 1250.350 964.382, 1246.500 966.467 C 1242.650 968.551, 1234.100 973.517, 1227.500 977.501 C 1220.900 981.485, 1213.475 985.864, 1211 987.231 C 1202.612 991.865, 1199.512 993.687, 1193.925 997.266 C 1188.350 1000.838, 1184.015 1003.338, 1176.500 1007.318 C 1174.300 1008.483, 1171.748 1010.051, 1170.829 1010.801 C 1168.921 1012.361, 1166.829 1013.584, 1154.419 1020.397 C 1149.514 1023.090, 1143.174 1026.803, 1140.331 1028.647 C 1137.487 1030.491, 1134.745 1032, 1134.236 1032 C 1133.726 1032, 1132.536 1032.855, 1131.590 1033.901 C 1130.643 1034.947, 1128.369 1036.083, 1126.535 1036.427 C 1119.131 1037.816, 1119.763 1041.791, 1128.219 1047.012 C 1131.123 1048.806, 1134.625 1051.033, 1136 1051.962 C 1137.375 1052.890, 1141.425 1055.172, 1145 1057.032 C 1148.575 1058.892, 1154.010 1062.085, 1157.078 1064.128 C 1163.086 1068.127, 1166.858 1070.341, 1177 1075.820 C 1180.575 1077.752, 1185.975 1080.986, 1189 1083.009 C 1192.025 1085.031, 1200.350 1089.794, 1207.500 1093.593 C 1220.492 1100.496, 1220.505 1100.500, 1228.500 1100.470 C 1236.937 1100.438, 1242.277 1098.521, 1254.058 1091.295 C 1263.116 1085.739, 1272.609 1080.245, 1278 1077.439 C 1281.025 1075.865, 1288.900 1071.370, 1295.500 1067.451 C 1302.100 1063.532, 1312.225 1057.720, 1318 1054.534 C 1323.775 1051.349, 1330.381 1047.451, 1332.680 1045.872 C 1334.979 1044.292, 1337.160 1043, 1337.526 1043 C 1337.892 1043, 1339.386 1042.173, 1340.846 1041.162 C 1342.306 1040.151, 1347.550 1037.176, 1352.500 1034.552 C 1357.450 1031.927, 1363.525 1028.409, 1366 1026.733 C 1368.475 1025.057, 1373.425 1022.130, 1377 1020.228 C 1386.758 1015.037, 1392.160 1011.864, 1395.594 1009.305 C 1397.296 1008.037, 1399.027 1007, 1399.440 1007 C 1399.853 1007, 1401.386 1006.167, 1402.846 1005.149 C 1404.306 1004.131, 1409.100 1001.352, 1413.500 998.974 C 1417.900 996.596, 1424.425 992.784, 1428 990.504 C 1431.575 988.223, 1436.975 984.991, 1440 983.321 C 1448.295 978.743, 1453.443 975.663, 1454 974.945 C 1454.275 974.590, 1454.950 974.120, 1455.500 973.900 C 1461.508 971.497, 1471.850 964.202, 1478 958.029 C 1483.986 952.020, 1486.005 949.188, 1488 944 L 1490.500 937.500 1490.344 803 C 1490.245 717.454, 1489.778 661.403, 1489.062 649 C 1488.442 638.275, 1487.612 585.625, 1487.218 532 L 1486.500 434.500 1483.890 429 C 1479.203 419.124, 1470.908 411.483, 1456 403.310 C 1445.288 397.437, 1439.351 394.002, 1407 374.956 C 1400.675 371.233, 1393.813 367.244, 1391.750 366.093 C 1384.611 362.108, 1381.460 360.264, 1372.500 354.826 C 1367.550 351.821, 1361.025 347.997, 1358 346.329 C 1351.693 342.849, 1349.272 341.468, 1335.500 333.486 C 1330 330.299, 1323.475 326.575, 1321 325.210 C 1318.525 323.845, 1312.140 320.082, 1306.811 316.847 C 1301.482 313.612, 1292.257 308.220, 1286.311 304.866 C 1272.518 297.085, 1272.267 296.938, 1267.500 293.896 C 1265.300 292.491, 1260.575 289.760, 1257 287.826 C 1250.369 284.238, 1246.647 282.133, 1239.432 277.891 C 1237.195 276.576, 1230.670 272.835, 1224.932 269.578 C 1219.195 266.320, 1210.450 261.180, 1205.500 258.154 C 1200.550 255.129, 1193.575 251.080, 1190 249.156 C 1186.425 247.233, 1178.100 242.424, 1171.500 238.470 C 1164.900 234.515, 1156.350 229.575, 1152.500 227.490 C 1138.711 220.025, 1136.508 218.757, 1132.352 215.898 C 1130.035 214.304, 1127.960 213, 1127.740 213 C 1127.075 213, 1103.682 199.865, 1101 197.986 C 1098.312 196.103, 1093.737 193.456, 1085 188.731 C 1069.437 180.314, 1066.178 178.465, 1062.495 175.962 C 1060.292 174.466, 1056.805 172.287, 1054.745 171.121 C 1052.685 169.954, 1049.372 168.078, 1047.383 166.951 C 1045.394 165.825, 1037.754 161.775, 1030.406 157.951 C 1012.920 148.852, 1012.676 148.852, 994.976 157.853 M 558 409.250 C 554.975 410.915, 545.075 416.642, 536 421.977 C 526.925 427.312, 517.700 432.710, 515.500 433.974 C 507.130 438.782, 504.890 440.062, 501.250 442.117 C 499.188 443.281, 496.375 445.010, 495 445.958 C 493.625 446.906, 489.125 449.496, 485 451.715 C 480.875 453.933, 475.250 457.131, 472.500 458.820 C 467.303 462.012, 456.478 468.160, 447 473.300 C 443.975 474.941, 440.373 477.007, 438.996 477.892 C 434.374 480.860, 432.523 481.969, 428 484.482 C 425.525 485.857, 421.250 488.350, 418.500 490.020 C 415.750 491.691, 411.700 493.940, 409.500 495.017 C 407.300 496.094, 402.575 498.832, 399 501.101 C 395.425 503.371, 389.125 507.044, 385 509.265 C 380.875 511.485, 375.836 514.247, 373.803 515.401 C 364.539 520.660, 352.948 527.009, 347 530.082 C 340.540 533.420, 333.724 538.130, 331.201 541 C 330.476 541.825, 328.591 545.200, 327.013 548.500 C 322.563 557.806, 321.787 569.382, 322.170 620.715 C 322.464 660.120, 322.679 665.109, 324.143 666.573 C 325.668 668.097, 325.816 664.067, 326.182 610.858 C 326.570 554.652, 326.621 553.420, 328.707 549.500 C 329.877 547.300, 332.785 543.615, 335.167 541.311 C 339.322 537.293, 386.905 509.322, 516 435.009 C 542.125 419.971, 563.928 407.291, 564.450 406.833 C 566.352 405.165, 563.437 406.257, 558 409.250 M 1591.282 485.826 C 1588.369 487.626, 1587.934 526.065, 1588.040 772.500 C 1588.152 1032.767, 1588.320 1022.731, 1583.760 1029.277 C 1581.456 1032.584, 1570.131 1041.623, 1564.500 1044.650 C 1562.300 1045.833, 1558.700 1047.823, 1556.500 1049.073 C 1554.300 1050.323, 1549.350 1052.999, 1545.500 1055.020 C 1541.650 1057.041, 1535.991 1060.302, 1532.925 1062.266 C 1526.540 1066.356, 1523.958 1067.828, 1511.500 1074.478 C 1506.550 1077.120, 1497.100 1082.541, 1490.500 1086.524 C 1483.900 1090.508, 1474.900 1095.671, 1470.500 1097.999 C 1466.100 1100.326, 1458.225 1104.813, 1453 1107.970 C 1447.775 1111.127, 1441.025 1115.060, 1438 1116.710 C 1430.239 1120.942, 1423.421 1124.801, 1417.553 1128.282 C 1410.129 1132.686, 1406.822 1134.571, 1393 1142.277 C 1386.125 1146.110, 1378.250 1150.702, 1375.500 1152.481 C 1372.750 1154.260, 1366.450 1157.873, 1361.500 1160.511 C 1349.067 1167.134, 1345.491 1169.144, 1338 1173.719 C 1334.425 1175.903, 1328.800 1179.166, 1325.500 1180.971 C 1310.647 1189.096, 1299.717 1195.300, 1293.852 1198.935 C 1290.358 1201.100, 1284.350 1204.526, 1280.500 1206.548 C 1276.650 1208.570, 1271.025 1211.606, 1268 1213.293 C 1250.140 1223.258, 1249.577 1223.439, 1236.500 1223.450 C 1224.842 1223.460, 1224.301 1223.363, 1217.500 1220.023 C 1211.369 1217.012, 1198.957 1210.152, 1188 1203.718 C 1186.075 1202.588, 1177.975 1197.997, 1170 1193.516 C 1150.880 1182.773, 1147.966 1181.086, 1145 1179.045 C 1143.625 1178.099, 1138.900 1175.379, 1134.500 1173 C 1130.100 1170.622, 1121.775 1165.877, 1116 1162.456 C 1110.225 1159.036, 1099.909 1152.921, 1093.076 1148.869 C 1076.812 1139.223, 1075.355 1138.383, 1063 1131.520 C 1057.225 1128.312, 1051.375 1124.911, 1050 1123.961 C 1047.119 1121.971, 1043.980 1120.195, 1031.500 1113.493 C 1026.550 1110.835, 1019.575 1106.881, 1016 1104.706 C 1012.425 1102.531, 1008.150 1099.965, 1006.500 1099.004 C 987.792 1088.107, 983.753 1086, 981.572 1086 C 978.504 1086, 978.213 1087.040, 977.655 1100 C 977.430 1105.225, 976.697 1120.525, 976.026 1134 C 975.130 1151.985, 975.093 1160.760, 975.887 1167 C 976.481 1171.675, 977.235 1178.875, 977.562 1183 C 979.409 1206.294, 984.737 1215.542, 1001.500 1224.547 C 1005.350 1226.615, 1009.627 1229.026, 1011.004 1229.904 C 1014.961 1232.426, 1017.030 1233.687, 1024.500 1238.132 C 1030.750 1241.851, 1035.636 1244.744, 1049.440 1252.898 C 1051.673 1254.217, 1055.975 1256.649, 1059 1258.301 C 1062.025 1259.954, 1067.425 1263.179, 1071 1265.467 C 1074.575 1267.756, 1080.088 1271.062, 1083.250 1272.814 C 1086.412 1274.566, 1091.588 1277.432, 1094.750 1279.181 C 1097.912 1280.931, 1102.784 1283.819, 1105.575 1285.600 C 1111.464 1289.357, 1115.964 1291.946, 1125 1296.774 C 1128.575 1298.685, 1136 1302.961, 1141.500 1306.277 C 1147 1309.594, 1154.425 1313.866, 1158 1315.771 C 1168.246 1321.230, 1175.023 1325.042, 1181.500 1328.990 C 1191.603 1335.146, 1213.658 1347.257, 1220 1350.130 C 1229.574 1354.468, 1245.841 1354.914, 1254.500 1351.077 C 1256.700 1350.102, 1263.225 1346.470, 1269 1343.005 C 1282.584 1334.857, 1284.832 1333.584, 1294.924 1328.326 C 1299.558 1325.912, 1305.899 1322.197, 1309.015 1320.070 C 1312.132 1317.942, 1319.591 1313.621, 1325.591 1310.466 C 1331.591 1307.312, 1336.950 1304.389, 1337.500 1303.972 C 1338.050 1303.555, 1340.075 1302.321, 1342 1301.231 C 1343.925 1300.141, 1348.640 1297.326, 1352.477 1294.975 C 1356.315 1292.625, 1363.065 1288.815, 1367.477 1286.508 C 1377.673 1281.177, 1382.811 1278.255, 1386.154 1275.883 C 1387.614 1274.847, 1389.031 1274, 1389.302 1274 C 1389.574 1274, 1392.808 1272.170, 1396.489 1269.934 C 1400.170 1267.697, 1403.929 1265.596, 1404.841 1265.265 C 1405.754 1264.934, 1408.381 1263.389, 1410.680 1261.832 C 1412.979 1260.274, 1415.287 1259, 1415.808 1259 C 1416.329 1259, 1417.308 1258.334, 1417.983 1257.521 C 1418.658 1256.707, 1420.401 1255.418, 1421.855 1254.657 C 1432.101 1249.291, 1441.268 1244.185, 1445.769 1241.336 C 1448.668 1239.501, 1451.298 1238, 1451.615 1238 C 1451.932 1238, 1453.441 1237.110, 1454.969 1236.022 C 1456.497 1234.934, 1461.291 1232.174, 1465.624 1229.889 C 1469.956 1227.603, 1476.552 1223.769, 1480.281 1221.367 C 1484.011 1218.965, 1487.316 1217, 1487.627 1217 C 1487.937 1217, 1489.386 1216.159, 1490.846 1215.132 C 1492.306 1214.105, 1496.875 1211.471, 1501 1209.279 C 1510.259 1204.358, 1516.034 1201.025, 1518 1199.468 C 1518.825 1198.815, 1521.975 1196.934, 1525 1195.287 C 1530.444 1192.325, 1534.480 1190.044, 1541.750 1185.822 C 1543.813 1184.624, 1547.891 1182.262, 1550.814 1180.572 C 1553.737 1178.882, 1558.237 1176.266, 1560.814 1174.758 C 1563.391 1173.250, 1567.975 1170.705, 1571 1169.103 C 1574.025 1167.501, 1578.300 1164.954, 1580.500 1163.445 C 1582.700 1161.935, 1586.525 1159.568, 1589 1158.185 C 1602.235 1150.789, 1605.386 1148.954, 1614.500 1143.332 C 1618.900 1140.618, 1624.975 1137.086, 1628 1135.483 C 1631.025 1133.881, 1635.381 1131.317, 1637.680 1129.785 C 1639.979 1128.253, 1642.160 1127, 1642.526 1127 C 1642.892 1127, 1644.386 1126.153, 1645.846 1125.117 C 1648.519 1123.221, 1653.953 1120.003, 1659.500 1117.032 C 1679.790 1106.165, 1690.767 1097.403, 1695.933 1087.951 L 1698.366 1083.500 1698.736 959.500 C 1698.940 891.300, 1699.482 832.350, 1699.941 828.500 C 1700.400 824.650, 1700.707 762.325, 1700.623 690 C 1700.454 545.339, 1700.921 556.017, 1694.355 546.701 C 1690.342 541.007, 1668.460 526.360, 1643 512.323 C 1630.199 505.266, 1627.028 503.453, 1618 498.033 C 1599.263 486.784, 1593.783 484.280, 1591.282 485.826 M 776.989 526.374 C 770.940 528.710, 760.777 534.076, 753.500 538.778 C 746.862 543.066, 745.194 544.066, 736.250 549.118 C 734.188 550.284, 729.448 553.209, 725.719 555.618 C 721.989 558.028, 718.766 560, 718.557 560 C 717.948 560, 703.552 568.325, 703 568.996 C 702.725 569.331, 700.925 570.382, 699 571.333 C 697.075 572.284, 690.378 576.198, 684.118 580.031 C 677.859 583.864, 672.528 587, 672.273 587 C 672.018 587, 670.614 587.847, 669.154 588.883 C 667.694 589.919, 664.925 591.663, 663 592.759 C 661.075 593.855, 656.125 596.668, 652 599.010 C 647.875 601.353, 641.225 605.246, 637.222 607.662 C 633.219 610.078, 627.594 613.332, 624.722 614.894 C 619.014 617.997, 617.939 618.621, 602.800 627.626 C 597.135 630.995, 590.700 634.737, 588.500 635.942 C 584.377 638.200, 582.565 639.255, 569.295 647.121 C 565.008 649.663, 558.964 653.107, 555.864 654.775 C 552.764 656.443, 547.139 659.817, 543.364 662.273 C 539.589 664.729, 533.017 668.615, 528.759 670.910 C 524.501 673.205, 518.426 676.786, 515.259 678.868 C 512.092 680.951, 505.942 684.645, 501.593 687.077 C 491.255 692.860, 487.181 695.214, 474.256 702.874 C 468.340 706.379, 456.975 713.071, 449 717.743 C 441.025 722.416, 432.333 727.535, 429.684 729.120 C 427.035 730.704, 424.641 732, 424.364 732 C 424.087 732, 421.898 733.350, 419.500 735 C 417.102 736.650, 414.929 738, 414.672 738 C 414.415 738, 411.173 739.841, 407.469 742.092 C 403.765 744.342, 399.331 746.987, 397.617 747.970 C 395.903 748.952, 391.575 751.447, 388 753.514 C 384.425 755.581, 378.575 758.863, 375 760.807 C 371.425 762.750, 367.108 765.389, 365.406 766.670 C 363.704 767.952, 362.025 769, 361.675 769 C 361.325 769, 358.577 770.575, 355.567 772.500 C 352.558 774.425, 349.720 776, 349.260 776 C 348.801 776, 346.866 777.351, 344.962 779.003 C 342.646 781.013, 344.975 779.970, 352 775.852 C 357.775 772.467, 389.500 753.862, 422.500 734.507 C 455.500 715.153, 516.700 679.382, 558.500 655.017 C 600.300 630.651, 665.213 592.759, 702.751 570.813 C 740.289 548.867, 772.914 530.207, 775.251 529.346 C 781.150 527.175, 792.384 527.283, 798 529.564 C 800.475 530.570, 811.050 536.387, 821.500 542.491 C 849.453 558.819, 850 559.128, 850 558.590 C 850 558.060, 843.177 553.942, 825.500 543.803 C 822.200 541.911, 815.900 538.131, 811.500 535.403 C 807.100 532.676, 801.025 529.401, 798 528.127 C 791.285 525.298, 781.821 524.508, 776.989 526.374 M 1261.500 685.497 C 1261.500 775.209, 1261.827 818.160, 1262.500 816.688 C 1263.830 813.778, 1263.781 557.380, 1262.450 554.309 C 1261.844 552.912, 1261.500 600.415, 1261.500 685.497 M 1101 570.342 C 1101 570.945, 1109.278 575.894, 1121 582.300 C 1134.843 589.865, 1143.493 597.137, 1147.153 604.285 L 1149.311 608.500 1149.511 751.500 C 1149.621 830.150, 1150.049 895.288, 1150.463 896.250 C 1150.876 897.212, 1151.623 898, 1152.124 898 C 1152.667 898, 1152.926 840.702, 1152.767 755.750 L 1152.500 613.500 1149.766 607.664 C 1144.192 595.766, 1139.770 591.895, 1117 578.984 C 1109.025 574.462, 1102.162 570.564, 1101.750 570.322 C 1101.338 570.080, 1101 570.089, 1101 570.342 M 336.352 786.250 C 327.165 796.256, 324.126 804.843, 323.079 823.757 C 321.763 847.545, 320.965 1292.199, 322.208 1309.174 C 322.951 1319.317, 327.052 1332.405, 330.993 1337.210 C 332.079 1338.535, 331.529 1336.778, 329.685 1333.041 L 326.500 1326.581 325.864 1285.541 C 325.063 1233.814, 325.072 1032.128, 325.882 903 L 326.500 804.500 329.610 798 C 331.321 794.425, 334.622 789.362, 336.945 786.750 C 339.269 784.138, 340.964 782, 340.712 782 C 340.461 782, 338.499 783.913, 336.352 786.250 M 455.434 840.393 C 448.089 845.340, 440.505 854.107, 437.821 860.753 L 435.500 866.500 435.275 1132.500 C 435.098 1342.727, 435.307 1398.081, 436.275 1396.500 C 437.232 1394.938, 437.554 1336.316, 437.745 1128.706 L 437.990 862.913 440.082 858.321 C 442.672 852.634, 449.618 845.095, 456.098 840.937 C 460.330 838.222, 461.769 837, 460.737 837 C 460.592 837, 458.206 838.527, 455.434 840.393 M 546.190 925.410 C 540.745 931.316, 537.465 938.136, 536.284 946 C 535.299 952.554, 535.298 1388.983, 536.283 1423.500 C 536.549 1432.850, 537.262 1441.625, 537.866 1443 C 538.668 1444.825, 538.802 1414.709, 538.365 1331.500 C 538.035 1268.800, 537.705 1155.617, 537.632 1079.983 L 537.500 942.466 540.690 935.983 C 542.444 932.417, 545.517 927.587, 547.518 925.250 C 552.294 919.671, 551.379 919.781, 546.190 925.410 M 862.054 988.260 C 851.004 995.528, 848.704 996.913, 841.500 1000.633 C 835.058 1003.960, 831.534 1005.858, 819 1012.752 C 816.525 1014.113, 814.275 1015.513, 814 1015.863 C 813.725 1016.213, 810.125 1018.251, 806 1020.390 C 801.875 1022.530, 797.600 1025.029, 796.500 1025.944 C 794.073 1027.961, 784.077 1033.962, 778.245 1036.901 C 773.095 1039.497, 768.020 1046.722, 764.830 1056 L 762.595 1062.500 761.996 1187.500 C 761.667 1256.250, 761.699 1317, 762.068 1322.500 C 762.739 1332.527, 763.089 1333.632, 769.419 1345.701 C 771.456 1349.585, 779.263 1356.732, 784.596 1359.596 C 790.293 1362.655, 794.685 1365.200, 802 1369.683 C 805.575 1371.874, 811.200 1375.154, 814.500 1376.972 C 817.800 1378.789, 822.300 1381.270, 824.500 1382.485 C 826.700 1383.699, 831.009 1386.300, 834.075 1388.265 C 840.822 1392.589, 845.296 1395.162, 854.500 1400.015 C 858.350 1402.045, 864.454 1405.527, 868.065 1407.752 C 871.676 1409.977, 878.876 1414.148, 884.065 1417.021 C 889.254 1419.894, 895.300 1423.246, 897.500 1424.469 C 899.700 1425.692, 904.200 1428.425, 907.500 1430.542 C 910.800 1432.659, 916.650 1436.030, 920.500 1438.033 C 928.340 1442.113, 930.549 1443.379, 943.816 1451.400 C 948.940 1454.498, 956.365 1458.753, 960.316 1460.857 C 964.267 1462.960, 972.673 1467.759, 978.995 1471.522 C 985.317 1475.286, 992.742 1479.563, 995.495 1481.028 C 1001.611 1484.282, 1005.557 1486.563, 1014 1491.726 C 1020.001 1495.395, 1026.705 1499.143, 1039.500 1505.978 C 1042.250 1507.447, 1049 1511.380, 1054.500 1514.717 C 1060 1518.054, 1067.425 1522.340, 1071 1524.242 C 1078.708 1528.342, 1081.874 1530.145, 1092.500 1536.484 C 1102.170 1542.254, 1104.239 1543.431, 1114.500 1549.008 C 1118.900 1551.399, 1124.784 1554.814, 1127.575 1556.596 C 1134.254 1560.862, 1138.561 1563.297, 1150 1569.273 C 1155.225 1572.003, 1160.694 1575.083, 1162.154 1576.118 C 1163.614 1577.153, 1165.098 1578, 1165.452 1578 C 1165.806 1578, 1168.662 1579.644, 1171.798 1581.653 C 1178.247 1585.784, 1182.212 1588.092, 1189.695 1592.072 C 1192.552 1593.592, 1198.627 1596.868, 1203.195 1599.352 C 1220.736 1608.893, 1229.033 1609.127, 1245.436 1600.543 C 1263.260 1591.215, 1268.377 1588.366, 1280 1581.294 C 1283.575 1579.119, 1290.550 1575.174, 1295.500 1572.528 C 1300.450 1569.881, 1306.750 1566.277, 1309.500 1564.518 C 1312.250 1562.760, 1316.300 1560.288, 1318.500 1559.025 C 1320.700 1557.762, 1324.075 1555.820, 1326 1554.710 C 1327.925 1553.599, 1331.750 1551.480, 1334.500 1550 C 1340.740 1546.642, 1344.742 1544.323, 1353 1539.278 C 1356.575 1537.095, 1363.430 1533.240, 1368.234 1530.713 C 1373.037 1528.186, 1378.887 1524.827, 1381.234 1523.248 C 1387.364 1519.124, 1405.601 1509, 1406.900 1509 C 1407.505 1509, 1408 1508.550, 1408 1508 C 1408 1507.450, 1408.475 1507, 1409.055 1507 C 1409.635 1507, 1412.760 1505.200, 1416 1503 C 1419.240 1500.800, 1422.149 1499, 1422.465 1499 C 1422.781 1499, 1424.718 1497.942, 1426.770 1496.648 C 1428.821 1495.355, 1433.875 1492.498, 1438 1490.299 C 1446.721 1485.651, 1450.114 1483.708, 1459 1478.274 C 1462.575 1476.087, 1469.539 1472.154, 1474.475 1469.534 C 1479.412 1466.913, 1485.937 1463.096, 1488.975 1461.051 C 1492.014 1459.006, 1498.550 1455.170, 1503.500 1452.525 C 1508.450 1449.881, 1513.694 1446.881, 1515.154 1445.859 C 1516.614 1444.836, 1518.101 1444, 1518.459 1444 C 1518.817 1444, 1521.673 1442.275, 1524.805 1440.166 C 1527.937 1438.057, 1534.325 1434.307, 1539 1431.833 C 1549.633 1426.206, 1554.802 1423.259, 1558 1421 C 1560.728 1419.073, 1563.851 1417.283, 1574.500 1411.542 C 1578.350 1409.466, 1582.694 1406.920, 1584.154 1405.884 C 1585.614 1404.848, 1587.096 1404, 1587.446 1404 C 1587.797 1404, 1588.947 1403.196, 1590.002 1402.213 C 1591.057 1401.230, 1594.751 1398.922, 1598.210 1397.085 C 1610.323 1390.652, 1617.521 1386.642, 1620 1384.945 C 1621.375 1384.004, 1624.188 1382.281, 1626.250 1381.117 C 1628.313 1379.953, 1631.688 1378.036, 1633.750 1376.859 C 1635.813 1375.681, 1639.525 1373.580, 1642 1372.191 C 1644.475 1370.802, 1650.775 1367.120, 1656 1364.010 C 1661.225 1360.900, 1668.623 1356.646, 1672.439 1354.556 C 1680.628 1350.073, 1690.977 1343.186, 1692.768 1341.028 C 1693.466 1340.188, 1694.979 1337.700, 1696.130 1335.500 C 1698.171 1331.602, 1698.224 1330.291, 1698.204 1284 C 1698.194 1257.875, 1698.522 1233.350, 1698.935 1229.500 C 1699.894 1220.552, 1698.765 1216, 1695.585 1216 C 1694.309 1216, 1690.167 1217.629, 1686.382 1219.619 C 1682.597 1221.610, 1677.700 1224.136, 1675.500 1225.234 C 1673.300 1226.331, 1670.825 1227.793, 1670 1228.482 C 1669.175 1229.171, 1665.125 1231.531, 1661 1233.728 C 1650.465 1239.336, 1645.910 1241.943, 1642.846 1244.117 C 1641.386 1245.153, 1639.880 1246, 1639.500 1246 C 1639.120 1246, 1637.614 1246.828, 1636.154 1247.841 C 1634.694 1248.853, 1629.900 1251.608, 1625.500 1253.962 C 1614.631 1259.778, 1609.238 1262.879, 1604.500 1266.038 C 1602.300 1267.504, 1596.450 1270.867, 1591.500 1273.509 C 1586.550 1276.152, 1581.306 1279.143, 1579.846 1280.157 C 1578.386 1281.171, 1576.880 1282, 1576.500 1282 C 1576.120 1282, 1574.614 1282.847, 1573.154 1283.883 C 1571.694 1284.919, 1568.925 1286.662, 1567 1287.758 C 1565.075 1288.853, 1558.100 1292.804, 1551.500 1296.538 C 1544.900 1300.272, 1537.619 1304.603, 1535.320 1306.163 C 1533.021 1307.724, 1530.941 1309, 1530.698 1309 C 1529.794 1309, 1511.249 1319.502, 1504.500 1323.837 C 1500.650 1326.309, 1494.125 1330.116, 1490 1332.296 C 1478.996 1338.111, 1475.132 1340.286, 1467.429 1345.004 C 1458.467 1350.494, 1454.920 1352.544, 1447 1356.810 C 1443.425 1358.736, 1439.306 1361.142, 1437.846 1362.156 C 1436.386 1363.170, 1434.880 1364, 1434.500 1364 C 1434.120 1364, 1432.561 1364.888, 1431.037 1365.974 C 1429.512 1367.059, 1425.168 1369.586, 1421.382 1371.589 C 1412.611 1376.229, 1408.271 1378.711, 1393.500 1387.536 C 1386.900 1391.478, 1378.575 1396.211, 1375 1398.053 C 1371.425 1399.895, 1365.350 1403.411, 1361.500 1405.867 C 1357.650 1408.322, 1351.575 1411.888, 1348 1413.790 C 1344.425 1415.693, 1338.350 1419.049, 1334.500 1421.249 C 1330.650 1423.449, 1325.925 1426.141, 1324 1427.231 C 1322.075 1428.321, 1320.050 1429.567, 1319.500 1430 C 1318.381 1430.881, 1313.222 1433.823, 1305 1438.269 C 1298.303 1441.890, 1284.121 1450.203, 1278.004 1454.092 C 1276.627 1454.968, 1270.550 1458.296, 1264.500 1461.487 C 1258.450 1464.679, 1252.375 1468.067, 1251 1469.016 C 1245.529 1472.794, 1239.567 1474.883, 1230.868 1476.072 C 1217.362 1477.918, 1207.992 1475.655, 1196.846 1467.857 C 1195.386 1466.836, 1193.880 1466, 1193.500 1466 C 1193.120 1466, 1191.614 1465.159, 1190.154 1464.132 C 1188.694 1463.105, 1184.125 1460.461, 1180 1458.256 C 1173.726 1454.903, 1164.194 1449.513, 1142.500 1437.050 C 1140.850 1436.102, 1135.450 1433.154, 1130.500 1430.500 C 1125.550 1427.846, 1119.693 1424.510, 1117.484 1423.087 C 1111.328 1419.122, 1110.692 1418.755, 1092 1408.371 C 1082.375 1403.024, 1072.700 1397.445, 1070.500 1395.973 C 1068.300 1394.500, 1062.450 1391.131, 1057.500 1388.485 C 1052.550 1385.839, 1046.700 1382.469, 1044.500 1380.996 C 1042.300 1379.523, 1038.025 1376.962, 1035 1375.306 C 1028.081 1371.518, 1025.226 1369.876, 1011 1361.500 C 1004.675 1357.776, 998.038 1353.890, 996.250 1352.865 C 994.462 1351.839, 991.538 1350.157, 989.750 1349.126 C 987.962 1348.095, 982 1344.669, 976.500 1341.513 C 971 1338.356, 965.038 1334.924, 963.250 1333.887 C 961.462 1332.849, 958.538 1331.169, 956.750 1330.153 C 954.962 1329.137, 951.025 1326.734, 948 1324.813 C 944.975 1322.893, 940.025 1319.974, 937 1318.328 C 933.975 1316.681, 928.350 1313.390, 924.500 1311.014 C 917.364 1306.610, 901.430 1297.320, 894.860 1293.733 C 888.835 1290.444, 883.698 1284.844, 880 1277.533 L 876.500 1270.613 875.789 1239.057 C 875.398 1221.700, 874.656 1161.825, 874.140 1106 C 873.189 1003.218, 872.695 986.090, 870.640 984.765 C 868.971 983.689, 869.051 983.657, 862.054 988.260 M 647.750 1116.416 C 646.697 1266.521, 646.802 1383.747, 647.993 1388.035 C 650.301 1396.343, 657.099 1403.718, 668.250 1410.012 C 674.225 1413.384, 672.588 1411.502, 666.138 1407.584 C 660.303 1404.040, 653.459 1397.458, 650.862 1392.894 C 649.731 1390.905, 649.415 1358.258, 649 1200 L 648.500 1009.500 647.750 1116.416" stroke="none" fill="#54a4fc" fill-rule="evenodd"/><path d="M 789.402 278.359 C 785.306 280.232, 626.736 371.015, 528.500 427.729 C 326.039 544.614, 333.837 539.861, 328.706 549.500 C 326.618 553.422, 326.568 554.633, 326.183 611.250 C 325.955 644.632, 326.165 669, 326.680 669 C 328.881 669, 556.940 537.926, 733.500 435.185 C 762.895 418.080, 785.296 405.690, 789.488 404.219 C 798.718 400.978, 807.081 401.442, 816.151 405.698 C 819.643 407.337, 840.500 419.263, 862.500 432.200 C 927.212 470.256, 985.058 503.724, 1057 544.734 C 1094.125 565.896, 1126.934 584.626, 1129.909 586.356 C 1138.269 591.216, 1145.581 598.892, 1149.272 606.685 L 1152.500 613.500 1152.767 755.750 C 1152.913 833.987, 1153.265 898, 1153.547 898 C 1154.357 898, 1209.404 867.311, 1220.500 860.673 C 1246.501 845.119, 1251.493 840.837, 1257.247 829.149 C 1260.154 823.244, 1260.426 821.768, 1261.118 808.149 C 1262.061 789.588, 1262.045 609.280, 1261.098 574 C 1260.413 548.467, 1260.294 547.297, 1257.835 541.946 C 1253.972 533.538, 1249.815 529.555, 1237.105 522.083 C 1158.776 476.033, 827.437 286.488, 815.210 280.734 C 807.610 277.158, 794.641 275.964, 789.402 278.359 M 780.407 528.002 C 773.707 529.377, 771.354 530.642, 725.500 557.507 C 701.300 571.685, 636.950 609.262, 582.500 641.010 C 476.303 702.932, 390.255 753.292, 359.336 771.620 C 338.319 784.079, 334.831 787.176, 329.626 798 L 326.500 804.500 325.696 925 C 325.253 991.275, 325.113 1107.825, 325.383 1184 C 325.926 1336.876, 325.513 1327.661, 332.259 1337.555 C 334.849 1341.352, 338.344 1344.081, 349.647 1351.133 C 372.569 1365.433, 430.309 1398, 432.741 1398 L 434.982 1398 435.241 1132.250 L 435.500 866.500 437.905 860.500 C 439.710 855.997, 442.081 852.753, 447.405 847.500 C 453.893 841.098, 458.347 838.326, 499.500 815.066 C 554.979 783.710, 637.063 736.482, 713 692.226 C 744.625 673.796, 772.414 657.895, 774.754 656.892 C 784.005 652.925, 794.744 653.776, 804 659.210 C 865.839 695.511, 992.264 768.364, 1026 787.136 L 1045.500 797.988 1046.306 777.744 C 1047.279 753.310, 1046.465 698.645, 1045.014 691 C 1043.491 682.978, 1037.823 671.760, 1032.782 666.794 C 1028.092 662.172, 1003.888 647.809, 894.500 584.734 C 858.750 564.120, 823.425 543.683, 816 539.318 C 808.575 534.953, 800.700 530.675, 798.500 529.810 C 793.218 527.734, 785.479 526.960, 780.407 528.002 M 784.385 786.422 C 779.959 787.806, 771.390 792.533, 718 823.037 C 678.169 845.794, 640.224 867.886, 590.031 897.543 C 551.070 920.563, 546.575 924.010, 541.180 935 L 537.989 941.500 537.368 973 C 537.026 990.325, 537.270 1103.618, 537.910 1224.763 C 539.043 1439.336, 539.124 1445.187, 541.041 1451.263 C 545.175 1464.363, 542.819 1462.656, 614.167 1504.241 C 828.547 1629.190, 996.114 1725.363, 1003.009 1727.410 C 1005.954 1728.284, 1010.983 1729, 1014.186 1729 C 1019.288 1729, 1021.291 1728.331, 1030.349 1723.602 C 1051.302 1712.663, 1117.133 1674.132, 1117.658 1672.500 C 1118.464 1669.996, 1079.842 1647.340, 786.500 1478.239 C 642.670 1395.327, 655.788 1403.463, 650.468 1393.859 L 647.500 1388.500 647.253 1300 C 647.117 1251.325, 647.342 1165.351, 647.753 1108.947 L 648.500 1006.393 652.294 998.718 C 654.426 994.405, 658.155 988.953, 660.807 986.271 C 666.178 980.841, 697.875 961.678, 775.500 916.933 C 841.427 878.930, 903.361 842.417, 903.720 841.340 C 904.045 840.365, 855.213 810.959, 831 797.550 C 822.475 792.829, 812.640 788.073, 809.145 786.983 C 801.831 784.701, 790.690 784.449, 784.385 786.422" stroke="none" fill="#5cb46c" fill-rule="evenodd"/></svg>