<svg id="Group_304" data-name="Group 304" xmlns="http://www.w3.org/2000/svg" xmlns:xlink="http://www.w3.org/1999/xlink" width="71.622" height="64.093" viewBox="0 0 71.622 64.093">
  <defs>
    <clipPath id="clip-path">
      <rect id="Rectangle_562" data-name="Rectangle 562" width="71.622" height="64.093" fill="#001a75"/>
    </clipPath>
  </defs>
  <g id="Group_303" data-name="Group 303" clip-path="url(#clip-path)">
    <path id="Path_300" data-name="Path 300" d="M18.956,34.7c0,3.59-.113,7.03.044,10.458A4.224,4.224,0,0,0,23.013,48.9c2.425.106,4.858.025,7.322.025a1.212,1.212,0,0,0-.058-.412c-.423-.671-.875-1.411.074-1.934s1.321.342,1.724.97c1.662,2.588,1.652,2.583-.1,5.162-.438.647-.915,1.211-1.724.684-.769-.5-.429-1.156-.046-1.758a3.134,3.134,0,0,0,.182-.463,8.2,8.2,0,0,0-.966-.121c-1.891-.011-3.782.008-5.672-.01a6.642,6.642,0,0,1-6.97-6.976c-.031-2.647-.013-5.3-.024-7.943,0-.411-.038-.822-.069-1.436-1.094,0-2.128,0-3.162,0-2.941.005-5.882.019-8.823.014-1.583,0-1.8-.233-1.807-1.847-.006-3.152-.027-6.3.016-9.456.012-.839-.178-1.361-1.071-1.52C.383,21.618-.037,20.729,0,19.263c.1-3.822.031-7.648.044-11.473C.052,6.077.288,5.859,2.041,5.857c2.353,0,4.706,0,7.059.008h1.364c0-.771-.052-1.4.009-2.012A4.1,4.1,0,0,1,14.584.026C16.6-.016,18.618,0,20.634.018A4.218,4.218,0,0,1,25.172,4.48c.01.411,0,.823,0,1.382,2.613,0,5.121.011,7.629,0,2.984-.017,2.985-.026,2.986,2.96,0,3.615-.036,7.23.022,10.843.017,1.1-.317,1.827-1.414,2.006-1.231.2-1.447.914-1.419,2.039.074,3.024.034,6.051.026,9.077,0,1.585-.337,1.916-1.932,1.919-3.989.008-7.978,0-12.115,0M5.08,32.562H30.791V22.988l-8.565,1.539c-.347,1.807-.739,2.145-2.507,2.164-1.008.011-2.016.007-3.024,0-2.3-.013-2.357-.057-3.129-2.128L5.08,23.03ZM12.166,8.068V22.205l1.382.184c.773-1.847.941-1.954,2.963-1.947.883,0,1.768.052,2.647,0,1.5-.1,2.832.043,3.087,1.934l1.375-.219V8.068ZM6.285,21.138V8.069H2.09c0,3.8-.011,7.531.025,11.259A.983.983,0,0,0,2.693,20c1.139.406,2.305.738,3.592,1.137M29.471,21.1c1.08-.317,2.018-.658,2.984-.858s1.253-.678,1.233-1.65c-.062-3.018-.021-6.038-.02-9.057q0-.722,0-1.446h-4.2Zm-6.4-15.3c.307-2.987-.375-3.758-3.152-3.748-1.424.005-2.848,0-4.273,0-2.653,0-3.515,1.1-2.884,3.747ZM8.611,8.086a2.711,2.711,0,0,0-.1.506c-.007,4.073,0,8.147-.015,12.22-.005,1.093.665,1.014,1.428.981V8.086ZM25.92,8.081V21.862l1.279-.275V8.081ZM15.878,24.65c.974,0,1.805,0,2.636,0,1.738,0,1.887-.223,1.366-2.018h-4Z" transform="translate(0 0)" fill="#001a75"/>
    <path id="Path_301" data-name="Path 301" d="M147.232,46.03c.265.537.542.841.523,1.124a1.638,1.638,0,0,1-.452,1.157,1.219,1.219,0,0,1-1.188-.122,23.484,23.484,0,0,1-1.934-2.937,1.157,1.157,0,0,1,.159-.926c.449-.757.978-1.466,1.46-2.2.38-.583.84-1.015,1.55-.582s.566,1.033.188,1.635c-.105.167-.172.359-.34.716,2.274,0,4.4,0,6.53,0,4.857,0,7.477,2.608,7.493,7.461.01,2.894,0,5.789,0,8.419a23.026,23.026,0,0,1,4.747,1.6c1.587.955,1.605,2.825,1.447,4.677.507.035.9.084,1.3.085,2.478.008,4.957,0,7.435.008,1.722.008,1.921.195,1.925,1.859.011,4.034-.018,8.067.021,12.1.01,1-.308,1.651-1.308,1.817-1.354.226-1.646,1.022-1.606,2.3.095,2.98.044,5.966.033,8.949-.005,1.517-.329,1.837-1.869,1.838-8.863.006-17.726-.007-26.589.016-1.145,0-1.581-.475-1.573-1.586.023-3.235-.03-6.471.02-9.705.014-.9-.2-1.429-1.132-1.592-1.287-.226-1.729-.983-1.7-2.318.082-3.99.024-7.982.028-11.974,0-1.445.253-1.7,1.678-1.708,2.808-.009,5.616,0,8.606,0-.323-4.619,2.077-6.333,6.489-5.859,0-1.433,0-2.721,0-4.009,0-1.891.032-3.782-.01-5.672A4.522,4.522,0,0,0,154.6,46.04c-2.388-.046-4.777-.01-7.365-.01m.156,37.305V92.9H173V83.3l-8.478,1.55c-.424,1.808-.772,2.085-2.65,2.091-.965,0-1.931.009-2.9.009-2.336,0-2.388-.037-3.108-2.112l-8.484-1.5m18.445-.914V68.352H154.474v14.1l1.484.2c.249-1.669,1.295-2.08,2.746-1.969a20.686,20.686,0,0,0,2.646-.006c1.533-.08,2.92.047,3.2,1.983l1.282-.241m-17.294-1.038V68.333h-4.155c0,3.8-.011,7.524.025,11.245a.982.982,0,0,0,.574.677c1.134.406,2.3.737,3.557,1.13m23.222-.027c1.159-.351,2.181-.7,3.225-.965.716-.181.879-.583.871-1.272-.033-3.068-.014-6.137-.014-9.205V68.335H171.76Zm-6.4-15.284c.311-2.981-.382-3.772-3.154-3.777-1.424,0-2.848.01-4.271.006-2.619-.008-3.52,1.151-2.873,3.771ZM150.79,68.31V81.875l1.414.263V68.31Zm17.331,0V82.169l1.373-.373V68.315Zm-5.8,14.607h-4.1v1.924h4.1Z" transform="translate(-106.477 -30.935)" fill="#001a75"/>
  </g>
</svg>
