<svg id="Group_296" data-name="Group 296" xmlns="http://www.w3.org/2000/svg" xmlns:xlink="http://www.w3.org/1999/xlink" width="76.409" height="76.409" viewBox="0 0 76.409 76.409">
  <defs>
    <clipPath id="clip-path">
      <rect id="Rectangle_558" data-name="Rectangle 558" width="76.409" height="76.409" fill="#001a75"/>
    </clipPath>
  </defs>
  <g id="Group_295" data-name="Group 295" clip-path="url(#clip-path)">
    <path id="Path_271" data-name="Path 271" d="M9.32,39.177c-2.653,0-5.122.055-7.585-.04C1.152,39.115.587,38.592.013,38.3c.59-.355,1.167-.988,1.772-1.017,2.456-.117,4.922-.049,7.548-.049V23.852c-1.945,0-3.844.107-5.723-.038A22.759,22.759,0,0,1,0,22.956c.8-1.936,2.474-.829,3.726-.968a54.714,54.714,0,0,1,5.76-.051c0-2.46-.011-4.742,0-7.024.021-3.573,1.88-5.41,5.485-5.426,2.219-.01,4.438,0,6.832,0-.015-2.228.719-4.277-.945-6.206A2.736,2.736,0,0,1,21.414.647,3.158,3.158,0,0,1,24.316.6c.581.377.828,1.81.669,2.673a61.687,61.687,0,0,1-1.717,6.017H37.233c0-2.376-.076-4.818.048-7.25.035-.692.65-1.355,1-2.031a6,6,0,0,1,.856,1.943c.1,2.384.041,4.776.041,7.353H52.56c0-2.426-.076-4.871.049-7.306.035-.683.66-1.336,1.014-2a6.388,6.388,0,0,1,.811,1.979c.1,2.38.039,4.768.039,7.5,2.4,0,4.679-.011,6.955,0,3.608.02,5.471,1.855,5.5,5.42.015,2.224,0,4.448,0,6.864,2.175.032,4.2.78,6.151-.872.47-.4,2.218.056,2.8.668a2.684,2.684,0,0,1-.017,2.678,3.734,3.734,0,0,1-2.879.656,59.1,59.1,0,0,1-5.928-1.538V37.233c2.38,0,4.819-.073,7.248.045a6.423,6.423,0,0,1,2.092.945,6.784,6.784,0,0,1-2.131.91c-2.366.117-4.741.044-7.229.044V52.56c1.977,0,3.945-.119,5.89.045a18.435,18.435,0,0,1,3.485.973,19.141,19.141,0,0,1-3.367.857c-1.9.144-3.819.039-6.114.039,0,2.281,0,4.475,0,6.669,0,4.032-1.781,5.788-5.859,5.784-2.069,0-4.137,0-6.6,0,0,2.518.072,4.956-.045,7.386a6.519,6.519,0,0,1-.926,2.1,6.788,6.788,0,0,1-.9-2.122c-.115-2.366-.043-4.743-.043-7.241H39.179c0,2.1.108,4.228-.046,6.333a12.9,12.9,0,0,1-.982,3.015,15.564,15.564,0,0,1-.877-3.123c-.142-1.981-.041-3.98-.041-6.165H24.009c-.031,2.029-.719,4.055.9,6.009.389.47-.091,2.217-.713,2.791a2.685,2.685,0,0,1-2.68-.055A3.792,3.792,0,0,1,20.9,72.96c.3-1.905.938-3.757,1.544-6.033-3.019,0-5.309.016-7.6,0-3.445-.03-5.321-1.887-5.358-5.315-.025-2.293,0-4.587,0-7.072-2.269.131-4.355-.676-6.259,1.06-.4.366-2.135-.063-2.626-.651a2.749,2.749,0,0,1-.113-2.69,3.6,3.6,0,0,1,2.851-.789A54.176,54.176,0,0,1,9.32,53.109ZM38.207,64.988V65H60.93C64.117,65,65,64.1,65,60.861q0-22.723-.007-45.445c0-3.083-.9-4-3.948-4q-22.842,0-45.684.006c-3.052,0-3.933.9-3.933,4q0,22.723-.007,45.445c0,3.245.857,4.118,4.069,4.118H38.207" fill="#001a75"/>
    <path id="Path_272" data-name="Path 272" d="M56.787,75.684c-2.508,2.376-5.035,3-7.966,1.247a3.451,3.451,0,0,0-2-.181,5.493,5.493,0,0,1-6.413-5.175,2.931,2.931,0,0,0-.67-1.807c-4.866-4.01-5.3-6.954-1.656-11.9-2.318-3.64-2.141-5.09.9-7.965a2.017,2.017,0,0,0,.577-1.152c.7-6.392,2.2-7.855,8.593-8.266,1.248-4.432,4.31-6.2,8.589-3.229,4.588-2.6,7.022-1.714,8.651,3.232a23.09,23.09,0,0,1,3.24.26c3.278.712,5.289,3.456,5.48,6.923a4.328,4.328,0,0,0,1.247,2.66c2.151,2.024,2.285,4.331.17,7.428,2.786,4.153,3.255,7.134.88,9.726-1.733,1.89-3.362,3.5-3.908,6.243-.451,2.263-3.119,3.3-5.6,3.04a3.54,3.54,0,0,0-2.017.1c-3,1.871-5.586,1.185-8.1-1.183m-.955-9.8c0-8.465.056-16.748-.075-25.029a3.952,3.952,0,0,0-1.688-2.784,2.833,2.833,0,0,0-2.722.507c-.6.682-.548,1.976-.66,3.018a10.234,10.234,0,0,0,.146,1.933,9.929,9.929,0,0,1-1.928-.446,5.114,5.114,0,0,0-7.256,6c.131.589.235,1.184.367,1.855-.636.208-1.2.229-1.5.521-.738.724-1.819,1.534-1.887,2.381a3.284,3.284,0,0,0,1.51,2.569c2.147,1.105,1.47,1.65-.053,2.66a4.959,4.959,0,0,0,.824,8.958,2.042,2.042,0,0,1,1.523,2.614c-.358,3.069,1.811,4.75,4.794,4a2.612,2.612,0,0,1,1.917.055c1.509,1.232,3.049,1.756,4.829.771,1.929-1.068,1.884-2.948,1.867-4.818-.017-1.822-.7-3.134-2.617-3.405-1.768-.25-2.8.688-3.432,2.3-.222.566-.89.958-1.355,1.43a5.6,5.6,0,0,1-.339-2.113c.817-3.171,3.433-4.2,7.731-2.987M57.81,53.581c0,6.388-.135,12.74.059,19.082.091,2.986,3.273,4.179,5.907,2.577a3.734,3.734,0,0,1,2.449-.6c3.167.713,5.284-.881,4.943-4.084-.14-1.31-.028-2,1.392-2.447A4.621,4.621,0,0,0,75.9,63.872a4.915,4.915,0,0,0-2.64-4.969c-1.564-.9-1.648-1.512.069-2.37,2.073-1.035,2.428-3.354.768-4.575a13.459,13.459,0,0,0-2.514-1.126c.13-.613.251-1.209.382-1.8A5.11,5.11,0,0,0,64.662,43.1a8.8,8.8,0,0,1-1.917.4,12.707,12.707,0,0,1,.227-1.938c.5-1.844-.25-3.389-1.9-3.752a2.64,2.64,0,0,0-3.253,2.592c-.111,2.941-.1,5.891-.012,8.833a2.772,2.772,0,0,0,2.611,2.91,2.973,2.973,0,0,0,3.321-2.116c.265-.631.947-1.086,1.44-1.621a6.312,6.312,0,0,1,.265,2.353c-.864,2.91-3.37,3.816-7.638,2.811" transform="translate(-18.602 -18.667)" fill="#001a75"/>
    <path id="Path_273" data-name="Path 273" d="M58.728,65.7a27.272,27.272,0,0,1,1.383,3.2c.106.351-.412.89-.644,1.344-.4-.3-1.075-.541-1.145-.9-.369-1.892-1.592-2.383-3.3-2.392a2.923,2.923,0,0,1-1.783-.52,6.429,6.429,0,0,1-1.065-1.8,16.2,16.2,0,0,0,1.844.071c.955-.067,2.24.107,2.762-.429s.326-1.822.406-2.782c.051-.606.033-1.218.045-1.827.606.388,1.675.714,1.736,1.174a37.78,37.78,0,0,1,.084,4.936l-.322-.078" transform="translate(-27.209 -31.116)" fill="#001a75"/>
    <path id="Path_274" data-name="Path 274" d="M94.77,90.83a42.091,42.091,0,0,1-1.038,4.513c-.137.4-.959.559-1.466.829-.072-.545-.176-1.088-.21-1.635-.063-1.016.3-2.526-.219-2.933-.7-.548-2.063-.252-3.144-.31-.487-.026-.975-.033-1.463-.048.172-.536.187-1.238.545-1.577,1.331-1.262,8.5-1.178,9.89.089a4.1,4.1,0,0,1,.645,1.362,5.818,5.818,0,0,1-1.592.245,11.735,11.735,0,0,1-1.948-.535" transform="translate(-45.493 -46.293)" fill="#001a75"/>
  </g>
</svg>
