<svg id="Group_302" data-name="Group 302" xmlns="http://www.w3.org/2000/svg" xmlns:xlink="http://www.w3.org/1999/xlink" width="86.689" height="65.618" viewBox="0 0 86.689 65.618">
  <defs>
    <clipPath id="clip-path">
      <rect id="Rectangle_561" data-name="Rectangle 561" width="86.689" height="65.618" fill="#001a75"/>
    </clipPath>
  </defs>
  <g id="Group_301" data-name="Group 301" clip-path="url(#clip-path)">
    <path id="Path_289" data-name="Path 289" d="M63.451,46.3c-.245,1.8.366,3.62-.991,5.135a4.427,4.427,0,0,1,.918,3.4,1.25,1.25,0,0,1-1.315,1.338c-.71-.019-1.164-.515-1.221-1.349-.015-.225,0-.451-.008-.677-.031-1.031-.41-1.412-1.459-1.414q-5.5-.009-11,0l-23.264.006c-1.327,0-1.634.3-1.637,1.653q-.01,3.511,0,7.023c0,1.3.366,1.646,1.664,1.647,4.4,0,8.8-.013,13.2.03a2.114,2.114,0,0,1,1.379.569,1.242,1.242,0,0,1,.057,1.213,1.93,1.93,0,0,1-1.3.707c-2.593.066-5.188.033-7.782.032q-2.919,0-5.837,0a3.713,3.713,0,0,1-3.918-3.692c-.071-2.678-.072-5.36.014-8.037a12.219,12.219,0,0,1,.716-2.636c-1.173-1.278-.588-3.128-.818-4.94h-.907c-3.1,0-6.2.024-9.306-.01A10.614,10.614,0,0,1,.107,37.145,10.338,10.338,0,0,1,6.458,26.207,3.492,3.492,0,0,0,8.6,24.037,16.136,16.136,0,0,1,23.775,13.705a3.445,3.445,0,0,0,3.414-1.982C31.671,4.084,38.438,0,47.281,0S62.86,4.093,67.422,11.68a2.665,2.665,0,0,0,2.544,1.441,16.523,16.523,0,0,1,2.972,32.811,56.759,56.759,0,0,1-7.162.364c-.757.03-1.517,0-2.326,0m.023-2.544c1.7,0,3.391.064,5.071-.018a25.6,25.6,0,0,0,4.856-.508c6.824-1.684,11.5-8.323,10.664-14.977a13.93,13.93,0,0,0-13.8-12.574A5.555,5.555,0,0,1,64.99,12.6a20.551,20.551,0,0,0-35.955,1,4.455,4.455,0,0,1-3.37,2.542,12.838,12.838,0,0,1-1.857.077,13.65,13.65,0,0,0-12.845,8.811,5.787,5.787,0,0,1-3.491,3.52,7.793,7.793,0,0,0-4.436,9.9,8.2,8.2,0,0,0,7.9,5.3c3.074.031,6.148,0,9.223,0,.218,0,.437-.035.683-.056.265-1.754-.379-3.636.778-4.883a15.805,15.805,0,0,1-.679-2.88c-.088-2.395.033-4.8-.048-7.192a4.007,4.007,0,0,1,4.35-4.327c11.394.075,22.789.034,34.184.041a3.651,3.651,0,0,1,3.938,3.889c.032,2.172-.011,4.344.014,6.516.015,1.334.067,2.661-.95,3.735,1.453,1.52.712,3.4,1.042,5.166M42.25,26.988v0q-8.67,0-17.34,0c-1.044,0-1.435.379-1.44,1.425q-.016,3.511,0,7.022c.007,1.58.308,1.872,1.887,1.873q6.894,0,13.787,0,10.066,0,20.131-.007c1.175,0,1.561-.4,1.561-1.582,0-2.341.009-4.681,0-7.022-.006-1.452-.286-1.712-1.75-1.712H42.25m-.082,23.2v-.007q8.542,0,17.085,0c1.181,0,1.567-.386,1.572-1.569q.013-3.6,0-7.191c0-1.224-.333-1.556-1.558-1.557q-17.043-.008-34.086-.007c-1.42,0-1.715.312-1.717,1.766,0,2.228,0,4.455,0,6.683,0,1.559.307,1.883,1.874,1.883q8.416,0,16.831,0" transform="translate(0 0)" fill="#001a75"/>
    <path id="Path_290" data-name="Path 290" d="M265.18,358.091q-3.717,0-7.434,0a1.342,1.342,0,0,1-1.5-1.075c-.186-.834.458-1.466,1.488-1.468q5.068-.012,10.137-.006c1.408,0,2.816.006,4.224,0,1.187,0,1.578-.387,1.6-1.547.026-1.318.416-1.927,1.244-1.942.883-.016,1.315.635,1.3,1.963a3.8,3.8,0,0,1-4.136,4.073q-3.463.005-6.927,0" transform="translate(-212.858 -292.481)" fill="#001a75"/>
    <path id="Path_291" data-name="Path 291" d="M166.056,334.574c1.8,0,3.6,0,5.4,0,1.028,0,1.635.5,1.609,1.3-.025.769-.62,1.244-1.6,1.245-3.686,0-7.373,0-11.059,0-.7,0-1.3-.172-1.544-.9a1.228,1.228,0,0,1,1.28-1.63c1.969-.029,3.939-.008,5.909-.008v-.01" transform="translate(-131.924 -277.958)" fill="#001a75"/>
    <path id="Path_292" data-name="Path 292" d="M268.98,334.608c.422,0,.845-.024,1.264.005a1.175,1.175,0,0,1,1.192,1.183,1.137,1.137,0,0,1-1.065,1.295,15.676,15.676,0,0,1-2.86,0,1.147,1.147,0,0,1-1.072-1.293,1.185,1.185,0,0,1,1.192-1.188c.447-.035.9-.006,1.348-.006v0" transform="translate(-221.352 -277.975)" fill="#001a75"/>
    <path id="Path_293" data-name="Path 293" d="M312.3,334.6c.421,0,.845-.027,1.263.006a1.163,1.163,0,0,1,1.18,1.186,1.125,1.125,0,0,1-1.057,1.292,15.224,15.224,0,0,1-2.858,0,1.141,1.141,0,0,1-1.06-1.3,1.173,1.173,0,0,1,1.185-1.187c.446-.038.9-.007,1.347-.007v.005" transform="translate(-257.352 -277.963)" fill="#001a75"/>
    <path id="Path_294" data-name="Path 294" d="M166.065,182.452c1.829,0,3.657,0,5.485,0,1.025,0,1.63.5,1.607,1.3-.021.759-.612,1.234-1.609,1.237q-5.57.015-11.14,0c-.933,0-1.487-.478-1.505-1.238-.019-.811.514-1.292,1.507-1.3,1.885-.015,3.769,0,5.654,0v-.005" transform="translate(-132.015 -151.577)" fill="#001a75"/>
    <path id="Path_295" data-name="Path 295" d="M269,182.492c.422,0,.844-.019,1.265,0a1.161,1.161,0,0,1,1.19,1.093,1.12,1.12,0,0,1-.976,1.357,15.749,15.749,0,0,1-3.022,0,1.1,1.1,0,0,1-.992-1.264,1.18,1.18,0,0,1,1.186-1.193c.448-.029.9-.005,1.349-.005v0" transform="translate(-221.37 -151.601)" fill="#001a75"/>
    <path id="Path_296" data-name="Path 296" d="M312.352,182.481c.421,0,.844-.026,1.263.006a1.14,1.14,0,0,1,1.157,1.113,1.12,1.12,0,0,1-.995,1.341,15.732,15.732,0,0,1-3.019-.014,1.083,1.083,0,0,1-.955-1.281,1.15,1.15,0,0,1,1.117-1.159c.473-.045.954-.009,1.431-.009v0" transform="translate(-257.376 -151.588)" fill="#001a75"/>
    <path id="Path_297" data-name="Path 297" d="M166.064,258.567c1.861,0,3.723-.006,5.584,0,.95,0,1.5.45,1.536,1.2.033.783-.556,1.331-1.511,1.334q-5.626.018-11.253,0c-.927,0-1.47-.5-1.476-1.274-.007-.82.528-1.266,1.536-1.267q2.792,0,5.584,0Z" transform="translate(-132.048 -214.809)" fill="#001a75"/>
    <path id="Path_298" data-name="Path 298" d="M268.979,258.554c.422,0,.844-.014,1.265,0a1.185,1.185,0,0,1,1.227,1.153,1.126,1.126,0,0,1-1.031,1.32,14.767,14.767,0,0,1-2.941,0,1.129,1.129,0,0,1-1.018-1.331,1.165,1.165,0,0,1,1.232-1.138c.422-.01.844,0,1.266,0Z" transform="translate(-221.382 -214.799)" fill="#001a75"/>
    <path id="Path_299" data-name="Path 299" d="M312.351,258.547c.421,0,.844-.022,1.264,0a1.171,1.171,0,0,1,1.181,1.1,1.063,1.063,0,0,1-.886,1.324,15.5,15.5,0,0,1-3.176.007,1.077,1.077,0,0,1-.895-1.322,1.13,1.13,0,0,1,1.165-1.1c.448-.023.9,0,1.348,0v-.007" transform="translate(-257.4 -214.79)" fill="#001a75"/>
  </g>
</svg>
