<svg id="Group_300" data-name="Group 300" xmlns="http://www.w3.org/2000/svg" xmlns:xlink="http://www.w3.org/1999/xlink" width="78.339" height="72.896" viewBox="0 0 78.339 72.896">
  <defs>
    <clipPath id="clip-path">
      <rect id="Rectangle_560" data-name="Rectangle 560" width="78.339" height="72.896" fill="#001a75"/>
    </clipPath>
  </defs>
  <g id="Group_299" data-name="Group 299" clip-path="url(#clip-path)">
    <path id="Path_284" data-name="Path 284" d="M100.746,91.9c-2.9,1.438-5.469,2.712-8.038,3.98-2.38,1.175-2.993.824-3.107-1.764-.027-.622-.064-1.243-.113-2.176-2.762,1.358-5.323,2.615-7.884,3.875-2.687,1.322-3.12,1.058-3.2-1.93-.014-.536-.1-1.071-.181-1.955-2.9,1.45-5.561,2.8-8.241,4.115-2.1,1.033-2.779.608-2.794-1.774-.024-3.777-.006-7.554-.006-11.475H55.773V99.4l-2.442-.666.642-1.151a5.032,5.032,0,0,1-.745-1.754c-.065-4.637-.015-9.276-.045-13.915-.009-1.424.588-2.035,2.02-2.023,4.146.035,8.293.047,12.439,0,1.571-.02,2.122.69,2.1,2.172-.041,2.81-.016,5.622,0,8.433,0,.747.065,1.493.119,2.643,2.843-1.418,5.386-2.689,7.931-3.954,2.7-1.342,3.116-1.087,3.195,1.929.014.543.083,1.084.155,1.987,2.693-1.345,5.173-2.591,7.659-3.823,2.936-1.455,3.332-1.218,3.453,2.009.018.48.1.958.191,1.761,2.779-1.379,5.389-2.68,8-3.97,2.442-1.2,2.914-.91,2.917,1.857.008,8.574-.04,17.149.037,25.722.016,1.845-.593,2.442-2.427,2.435q-22.77-.082-45.541,0c-1.8.005-2.3-.7-2.259-2.387.086-3.582.094-7.17-.014-10.751-.053-1.762.631-2.459,2.552-2.318,0,3.56.091,7.128-.039,10.688-.065,1.768.5,2.261,2.25,2.253q20.346-.1,40.691,0c1.674.007,2.34-.349,2.313-2.184-.1-6.815-.039-13.633-.047-20.451,0-.548-.07-1.1-.135-2.032" transform="translate(-30.738 -46.192)" fill="#001a75"/>
    <path id="Path_285" data-name="Path 285" d="M15.029,50.413a13.933,13.933,0,0,1-14-19.188,14.079,14.079,0,0,1,6.153-6.979,3.026,3.026,0,0,0,1.242-2.233C8.225,12.137,13.96,3.843,23.1.975c9.107-2.858,18.541.7,24.039,8.966a3.387,3.387,0,0,0,2.271,1.324,15.053,15.053,0,0,1,13.685,9.6,2.519,2.519,0,0,0,2.431,1.791A13.857,13.857,0,0,1,77.957,39.707a2.514,2.514,0,0,1-.4,1.179,9.23,9.23,0,0,1-1.589,1.043,5.5,5.5,0,0,1-.809-1.848c-.052-2.208.493-4.516.032-6.614a10.868,10.868,0,0,0-11.044-8.285c-1.809.092-2.562-.363-3.081-2.151A12.214,12.214,0,0,0,47.983,14.06c-1.472.135-1.965-.651-2.535-1.682a18.234,18.234,0,0,0-12.8-9.4C20.876.5,9.33,11.3,11.146,23.189c.209,1.369.11,2.183-1.316,2.822C4.548,28.38,1.722,33.375,2.721,38.289c1.193,5.868,5.452,9.365,11.649,9.548a22.628,22.628,0,0,1,3.363.07c.6.109,1.087.787,1.626,1.209-.529.431-1,1.092-1.6,1.24a11.744,11.744,0,0,1-2.728.057" transform="translate(0 0)" fill="#001a75"/>
    <path id="Path_286" data-name="Path 286" d="M119.875,133.832a31.182,31.182,0,0,1,1.211,4.49c.073.6-.649,1.3-1.01,1.955-.475-.557-1.232-1.053-1.369-1.684-.364-1.676-.954-3.014-3.112-3.648a27.827,27.827,0,0,1-.057,3.9c-.077.52-.776.947-1.193,1.417-.423-.457-1.2-.9-1.214-1.373-.1-3.644-.1-7.293-.014-10.938a1.856,1.856,0,0,1,1.006-1.352c2.158-.787,5.218.063,6.356,1.625,1.119,1.537.879,3.451-.6,5.6m-4.406-2.13.514.5a10.359,10.359,0,0,0,2.366-1.028c.219-.163.077-1.337-.254-1.594-.469-.366-1.721-.586-1.841-.388a9.977,9.977,0,0,0-.785,2.513" transform="translate(-65.371 -73.033)" fill="#001a75"/>
    <path id="Path_287" data-name="Path 287" d="M89.2,132.03c1.326.769,3.7-.683,3.769,1.519.085,2.574-2.631.8-3.769,1.8-.475,2.536-.413,2.542,2.071,2.671,1.18.062,3.191-.7,3.166,1.288s-2.033,1.214-3.208,1.227c-5.376.06-4.809.607-4.83-4.8-.009-2.311.031-4.623-.012-6.934-.026-1.369.427-2.119,1.933-2.055,1.608.068,3.231-.078,4.826.081.5.05.938.784,1.4,1.2a5.624,5.624,0,0,1-1.428,1.187,5.748,5.748,0,0,1-1.874.068c-2.464.028-2.51.088-2.047,2.737" transform="translate(-49.952 -73.29)" fill="#001a75"/>
    <path id="Path_288" data-name="Path 288" d="M142.194,135.189a22.676,22.676,0,0,1-.057,3.689c-.1.609-.792,1.118-1.216,1.672-.456-.58-1.283-1.145-1.306-1.741-.129-3.423-.062-6.853-.076-10.281,0-1.232.592-1.79,1.812-1.747.7.024,1.4-.01,2.1.006a4.063,4.063,0,0,1,4.3,3.705,4.183,4.183,0,0,1-3.573,4.465c-.544.108-1.1.132-1.988.232m-.231-3.38.49.582a11.522,11.522,0,0,0,2.38-.855c.211-.128.183-1.219-.094-1.465-.459-.408-1.658-.8-1.76-.653a11.027,11.027,0,0,0-1.015,2.391" transform="translate(-80.682 -73.306)" fill="#001a75"/>
  </g>
</svg>
