<svg id="Group_306" data-name="Group 306" xmlns="http://www.w3.org/2000/svg" xmlns:xlink="http://www.w3.org/1999/xlink" width="52.984" height="51.944" viewBox="0 0 52.984 51.944">
  <defs>
    <clipPath id="clip-path">
      <rect id="Rectangle_563" data-name="Rectangle 563" width="52.984" height="51.945" fill="#001a75"/>
    </clipPath>
  </defs>
  <g id="Group_305" data-name="Group 305" clip-path="url(#clip-path)">
    <path id="Path_302" data-name="Path 302" d="M70.961,2.563H48.225c0,.725,0,1.434,0,2.144,0,1.859.01,3.719-.009,5.578a2.68,2.68,0,0,1-3,2.989c-2.2.025-4.407.008-6.611.01H37.456v1.174q0,6.456-.007,12.911c0,.338.035.782-.152.991-.31.344-.806.762-1.19.731s-.793-.526-1.071-.906c-.153-.21-.074-.6-.075-.909,0-4.855.013-9.71-.016-14.564a2.678,2.678,0,0,1,.857-2.095c3.313-3.26,6.568-6.579,9.9-9.821A2.856,2.856,0,0,1,47.493.039C55.17-.012,62.848,0,70.527.011A2.641,2.641,0,0,1,73.45,2.956c.005.62.009,1.24.005,1.859,0,.828-.325,1.452-1.231,1.463S70.97,5.688,70.962,4.85c-.007-.72,0-1.439,0-2.287M39.5,10.686h6.131V4.661L39.5,10.686" transform="translate(-27.718 0)" fill="#001a75"/>
    <path id="Path_303" data-name="Path 303" d="M71.033,136.663c0-4.441,0-8.777,0-13.114,0-3.925-.017-7.851.027-11.776a2.2,2.2,0,0,1,.547-1.446,1.157,1.157,0,0,1,1.885.887,17.41,17.41,0,0,1,.034,1.961q0,11.414,0,22.828c0,2.242-.974,3.237-3.178,3.238q-16.062,0-32.125-.01c-2.231,0-3.183-.975-3.194-3.208q0-.929.021-1.859a1.151,1.151,0,0,1,1.146-1.225,1.167,1.167,0,0,1,1.3,1.182c.065.817.015,1.644.015,2.542Z" transform="translate(-27.789 -87.297)" fill="#001a75"/>
    <path id="Path_304" data-name="Path 304" d="M142.5,27.612c0,.862.023,1.506-.006,2.148a1.255,1.255,0,0,1-1.368,1.349c-1.411.013-2.823.017-4.234,0a1.2,1.2,0,0,1-1.351-1.243c0-.831.585-1.214,1.367-1.237.99-.03,1.98-.007,3.111-.007,0-.693-.024-1.268,0-1.841a1.953,1.953,0,0,1,3.047-1.75c.933.508,1.794,1.149,2.677,1.746q3.934,2.658,7.859,5.329c1.763,1.2,1.787,2.858.028,4.061-3.322,2.272-6.667,4.513-10,6.773a2.275,2.275,0,0,1-2.587.358A2.231,2.231,0,0,1,140,41c.015-.275.012-.551,0-.826a3.975,3.975,0,0,0-.1-.5h-3.912c-1.893,0-3.787.005-5.68,0-1.168,0-1.8-.454-1.791-1.257s.6-1.246,1.8-1.251q5.216-.021,10.431,0c1.366.007,1.74.429,1.758,1.831.006.48,0,.961,0,1.683l9.634-6.53L142.5,27.612" transform="translate(-101.956 -19.603)" fill="#001a75"/>
    <path id="Path_305" data-name="Path 305" d="M2.783,144.585l9.664,6.546c0-.849-.008-1.488,0-2.126a1.274,1.274,0,0,1,1.415-1.407c1.377-.012,2.754-.008,4.132,0,.8,0,1.374.374,1.387,1.2.014.881-.566,1.273-1.418,1.276-.961,0-1.922,0-3.034,0,0,.622.016,1.192,0,1.761-.061,1.824-1.645,2.8-3.15,1.818C8.122,151.262,4.511,148.8.93,146.3a2.043,2.043,0,0,1,.008-3.431q5.38-3.743,10.856-7.346a1.971,1.971,0,0,1,3.128,1.742c.03.575,0,1.153,0,1.837h8.855a3.667,3.667,0,0,1,1.428.048,2.141,2.141,0,0,1,1.117,1.1c.2.679-.307,1.153-1,1.309a3.778,3.778,0,0,1-.822.042q-5.009,0-10.019-.006c-1.726,0-2.034-.314-2.044-2.044,0-.412,0-.824,0-1.482l-9.662,6.522" transform="translate(0 -107.2)" fill="#001a75"/>
    <path id="Path_306" data-name="Path 306" d="M145.021,66.811c-1.171,0-2.343.021-3.513,0-.993-.022-1.552-.523-1.482-1.322.08-.913.695-1.172,1.519-1.169q3.41.013,6.82-.006c.864-.006,1.52.253,1.6,1.211.066.79-.57,1.272-1.637,1.286-1.1.014-2.2,0-3.307,0" transform="translate(-111.076 -51.016)" fill="#001a75"/>
    <path id="Path_307" data-name="Path 307" d="M73.107,177.22c-1.17,0-2.341.017-3.511-.006-.764-.015-1.375-.307-1.41-1.177-.037-.931.593-1.3,1.393-1.306q3.614-.043,7.228.014a1.169,1.169,0,0,1,1.308,1.275c-.03.862-.613,1.176-1.394,1.184-1.2.012-2.409,0-3.614,0v.012" transform="translate(-54.09 -138.599)" fill="#001a75"/>
  </g>
</svg>
