<svg id="Group_310" data-name="Group 310" xmlns="http://www.w3.org/2000/svg" xmlns:xlink="http://www.w3.org/1999/xlink" width="57.363" height="57" viewBox="0 0 57.363 57">
  <defs>
    <clipPath id="clip-path">
      <rect id="Rectangle_565" data-name="Rectangle 565" width="57.363" height="57" fill="#001a75"/>
    </clipPath>
  </defs>
  <g id="Group_309" data-name="Group 309" clip-path="url(#clip-path)">
    <path id="Path_310" data-name="Path 310" d="M48.776,69.009a15.542,15.542,0,0,0-1.892-.153,2.46,2.46,0,0,1-2.647-1.979,3.4,3.4,0,0,0-4.772-1.917,2.44,2.44,0,0,1-3.156-.439c-.715-.73-1.47-1.423-2.229-2.108-1.488-1.343-2.132-2.772-.941-4.717.6-.986-.5-3.567-1.637-3.865C29.478,53.3,28.8,52.019,28.9,50.086c.04-.777.039-1.559,0-2.336-.091-1.918.55-3.221,2.582-3.764,1.23-.329,2.265-2.9,1.618-3.987-1.046-1.761-.587-3.1.776-4.368.535-.5,1.051-1.018,1.543-1.557,1.344-1.47,2.768-2.172,4.717-.952.908.568,3.565-.467,3.806-1.495.534-2.279,2.052-2.844,4.1-2.759.68.028,1.364.048,2.044.016,1.917-.09,3.228.539,3.762,2.586.322,1.233,2.883,2.263,3.987,1.611,1.766-1.043,3.1-.575,4.371.779.5.533,1.02,1.049,1.563,1.538,1.493,1.345,2.131,2.778.943,4.723-.6.974.507,3.568,1.644,3.866,2.024.531,2.711,1.806,2.591,3.748a18.676,18.676,0,0,0,0,2.335c.124,1.943-.561,3.214-2.581,3.758-1.223.329-2.254,2.892-1.6,3.994,1.048,1.772.567,3.1-.795,4.368-.535.5-1.044,1.025-1.537,1.563-1.348,1.472-2.784,2.151-4.717.927-.839-.531-3.545.439-3.747,1.384-.648,3.026-2.892,2.953-5.184,2.945M66.613,48.868a2.315,2.315,0,0,0-1.853-3.039c-.6-.166-1.086-.957-1.469-1.561s-.491-1.387-.871-2a2.339,2.339,0,0,1-.032-2.721,1.842,1.842,0,0,0-.5-2.756,6.109,6.109,0,0,1-.929-.928,1.793,1.793,0,0,0-2.643-.432,2.427,2.427,0,0,1-2.854-.078,3.94,3.94,0,0,0-1.338-.567,2.815,2.815,0,0,1-2.439-2.346A1.426,1.426,0,0,0,50.017,31.2c-.728.032-1.459.032-2.187,0a1.428,1.428,0,0,0-1.67,1.236A2.858,2.858,0,0,1,43.725,34.8a4.842,4.842,0,0,0-1.476.617,2.17,2.17,0,0,1-2.58.067,1.988,1.988,0,0,0-2.992.583,6.437,6.437,0,0,1-.815.836,1.694,1.694,0,0,0-.458,2.516,2.465,2.465,0,0,1-.05,2.982,3.919,3.919,0,0,0-.614,1.474A2.546,2.546,0,0,1,32.56,46.1a1.627,1.627,0,0,0-1.374,1.891c.02.583.022,1.169-.006,1.752a1.686,1.686,0,0,0,1.435,2A2.574,2.574,0,0,1,34.764,54a3.574,3.574,0,0,0,.551,1.344,2.555,2.555,0,0,1,.064,3.114,1.616,1.616,0,0,0,.426,2.393,12.465,12.465,0,0,1,1.242,1.235,1.558,1.558,0,0,0,2.276.386,2.709,2.709,0,0,1,3.253.084,4.1,4.1,0,0,0,1.482.6,2.263,2.263,0,0,1,1.962,1.88A1.854,1.854,0,0,0,48.2,66.651a9.819,9.819,0,0,0,2.031-.1,2.073,2.073,0,0,0,1.324-1,3.4,3.4,0,0,1,2.788-2.607c.512-.1.965-.515,1.477-.6a3.744,3.744,0,0,1,2.143-.043,2.34,2.34,0,0,0,3.376-.712c.329-.421.83-.738,1.055-1.2a1.984,1.984,0,0,0,.207-1.5A3.492,3.492,0,0,1,62.7,54.94c.315-.471.338-1.134.641-1.618s.73-1.131,1.22-1.26c1.731-.456,2.4-1.472,2.05-3.193" transform="translate(-20.435 -20.417)" fill="#001a75"/>
    <path id="Path_311" data-name="Path 311" d="M89.3,28.553c-.652,3.081-1.334,6.157-1.93,9.249a2.661,2.661,0,0,0,.235,1.8,4.866,4.866,0,0,1-.149,5.961,4.688,4.688,0,0,1-8.176-3.906,4.562,4.562,0,0,1,4.546-3.786,1.291,1.291,0,0,0,1.43-1.058C91.209,19.826,77.62,1.554,59.6,2.31a26.879,26.879,0,0,0-12.122,3.4,3.084,3.084,0,0,1-1.47.488c-.315-.01-.914-.579-.867-.767.136-.54.421-1.295.849-1.47,3.05-1.244,6.061-2.83,9.25-3.447A28.4,28.4,0,0,1,88.918,28.473l.377.08M86.227,42.582a2.34,2.34,0,0,0-2.347-2.429,2.363,2.363,0,1,0,.011,4.726,2.343,2.343,0,0,0,2.336-2.3" transform="translate(-31.933 0)" fill="#001a75"/>
    <path id="Path_312" data-name="Path 312" d="M27.577,80.65C8.8,80.451-4.7,61.491,1.54,43a2.054,2.054,0,0,0-.333-2.225,4.549,4.549,0,0,1,.239-5.682A4.683,4.683,0,0,1,9.626,38.96a4.506,4.506,0,0,1-4.381,3.791,1.458,1.458,0,0,0-1.627,1.193C-2.289,61.36,11.841,79.636,30.162,78.281a26.757,26.757,0,0,0,11.369-3.44c.752-.426,1.556-.918,2.142.089s-.23,1.488-.978,1.915A29.158,29.158,0,0,1,27.577,80.65M7.4,38.07a2.443,2.443,0,0,0-2.349-2.319,2.35,2.35,0,0,0-2.368,2.412,2.322,2.322,0,0,0,2.462,2.3A2.393,2.393,0,0,0,7.4,38.07" transform="translate(0 -23.651)" fill="#001a75"/>
    <path id="Path_313" data-name="Path 313" d="M72.613,82.847A10.252,10.252,0,1,1,82.835,72.634,10.216,10.216,0,0,1,72.613,82.847m.01-2.319a7.938,7.938,0,1,0-7.978-7.817,7.932,7.932,0,0,0,7.978,7.817" transform="translate(-44.093 -44.104)" fill="#001a75"/>
  </g>
</svg>
