<svg id="Group_308" data-name="Group 308" xmlns="http://www.w3.org/2000/svg" xmlns:xlink="http://www.w3.org/1999/xlink" width="47.326" height="57.783" viewBox="0 0 47.326 57.783">
  <defs>
    <clipPath id="clip-path">
      <rect id="Rectangle_564" data-name="Rectangle 564" width="47.326" height="57.783" fill="#001a75"/>
    </clipPath>
  </defs>
  <g id="Group_307" data-name="Group 307" clip-path="url(#clip-path)">
    <path id="Path_308" data-name="Path 308" d="M.03,9.207C8.75,8.121,16.732,5.519,23.645,0,30.559,5.473,38.518,8.139,47.29,9.194v1.88c0,4.623-.109,9.248.021,13.867.31,11.016-4.4,19.661-12.682,26.444-2.965,2.429-6.521,4.145-9.854,6.106a2.362,2.362,0,0,1-1.88.164C12.244,52.787,4.235,45.426.988,33.791a27.85,27.85,0,0,1-.917-6.746c-.13-5.3-.041-10.614-.04-15.921V9.207M2.485,11.17c0,6.561-.023,12.94.026,19.318a10.432,10.432,0,0,0,.563,2.672C6.085,43.823,13.38,50.633,23.065,55.251a1.945,1.945,0,0,0,1.566-.186c3.01-1.837,6.222-3.451,8.91-5.688,7.528-6.264,11.837-14.184,11.516-24.272-.127-3.991-.021-7.988-.021-11.983V11.251c-.854-.17-1.515-.31-2.18-.434a43.258,43.258,0,0,1-16.52-6.263c-1.979-1.33-3.248-1.411-5.282-.046C15.477,8.251,9.124,10.115,2.485,11.17" transform="translate(0)" fill="#001a75"/>
    <path id="Path_309" data-name="Path 309" d="M56.435,63.858c-4.906,5.151-9.714,10.253-14.6,15.283a2.669,2.669,0,0,1-3.888.2c-3.122-2.824-6.115-5.79-9.146-8.685,2.049-2.723,4.38-2.942,6.739-.727,1.4,1.318,2.781,2.664,4.27,4.094,3.389-3.573,6.674-7.046,9.97-10.508,2.689-2.823,3.823-2.786,6.65.348" transform="translate(-18.941 -40.405)" fill="#001a75"/>
  </g>
</svg>
