<svg id="Group_298" data-name="Group 298" xmlns="http://www.w3.org/2000/svg" xmlns:xlink="http://www.w3.org/1999/xlink" width="70.034" height="70.507" viewBox="0 0 70.034 70.507">
  <defs>
    <clipPath id="clip-path">
      <rect id="Rectangle_559" data-name="Rectangle 559" width="70.034" height="70.507" fill="#001a75"/>
    </clipPath>
  </defs>
  <g id="Group_297" data-name="Group 297" clip-path="url(#clip-path)">
    <path id="Path_275" data-name="Path 275" d="M39.849,12.187a2.5,2.5,0,0,0-.237.51c-.384,3.673-.383,3.678-4.172,3.677q-10.443,0-20.887-.014c-2.585,0-2.586.007-2.613-2.6-.005-.466-.058-.932-.1-1.565-2.759,0-5.447-.078-8.128.032-1.4.058-1.579,1.207-1.576,2.383.014,5.522,0,11.044.005,16.566q.005,17.016.016,34.032c0,2.527.249,2.773,2.8,2.774,12.9,0,25.809-.009,38.714.027.9,0,2.441-.542,2.463.956.024,1.648-1.591,1.082-2.532,1.085q-19.447.059-38.894.023c-3.3,0-4.7-1.416-4.7-4.715Q0,39.878.008,14.4c0-2.99,1.41-4.413,4.4-4.434,2.447-.017,4.894,0,7.033,0,.5-1.344.612-2.882,1.4-3.407.822-.549,2.294-.122,3.011-.122.913-1.828,1.374-3.512,2.416-4.677,2.1-2.352,12.84-2.339,14.962.024,1.044,1.163,1.491,2.862,2.341,4.59.785.048,2.278-.268,3.187.32.735.475.766,2.038,1.185,3.356,2.166,0,4.554-.01,6.941,0,3.157.017,4.612,1.447,4.62,4.63.018,6.962,0,13.925-.01,20.887,0,.819.167,1.874-1.088,1.861-1.275-.012-1.033-1.09-1.035-1.89q-.023-10.354-.019-20.707c0-2.188-.434-2.629-2.618-2.64-2.326-.012-4.651,0-6.883,0M14.134,14.2H37.262V8.7H14.134ZM32.709,6.284c.094-2.531-1.077-3.872-3.389-3.9-2.392-.031-4.785-.049-7.176,0-2.376.048-3.482,1.347-3.356,3.9Z" transform="translate(0 0)" fill="#001a75"/>
    <path id="Path_276" data-name="Path 276" d="M134.494,112.228c-.329.6-.44,1.066-.735,1.3-1.924,1.526-.684,3.115-.022,4.589.178.4,1.119.622,1.713.63,1.76.023,2.323.914,2.133,2.526a4.15,4.15,0,0,0,0,1.078c.233,1.578-.6,2.1-2.02,2.282-2.514.325-3.528,2.887-2.044,5.012,1.263,1.809,1.2,1.748-1.035,4.079-1.183,1.234-2.052.957-3.2.028a3.011,3.011,0,0,0-4.714,2c-.142,1.452-.506,2.314-2.252,2.266-3.278-.089-3.281,0-3.648-2.289-.345-2.155-3.114-3.367-4.745-1.96-1.307,1.127-2.158.972-3.262-.277-1.934-2.189-2-2.13-.507-4.4.833-1.268-.4-4.022-1.889-4.368-.873-.2-2.291-.457-2.427-.966a10.31,10.31,0,0,1,0-4.067c.051-.343,1.02-.69,1.608-.788,2.737-.457,3.891-2.922,2.23-5.089-.866-1.13-.921-1.986.189-2.9a7.493,7.493,0,0,0,1.115-1.171c.775-.994,1.5-1.107,2.548-.255a2.963,2.963,0,0,0,5.035-2c.206-1.521.854-2.125,2.344-1.924a4.448,4.448,0,0,0,1.256,0c1.568-.243,2.119.56,2.308,1.986.328,2.487,2.863,3.513,5.024,2.181.578-.356,1.642-.732,2.015-.459a24.977,24.977,0,0,1,2.984,2.961m-12.186,23.107c.445-2.783.446-2.781,3.106-3.81a3.316,3.316,0,0,0,.976-.445,2.243,2.243,0,0,1,3.45.194c.784.793,1.427.735,1.935-.494-1.844-1.475-1.839-3.234-.51-5.115a1.548,1.548,0,0,0,.228-.678,2.562,2.562,0,0,1,2.728-2.477c.387-.02.751-.5,1.125-.766-.387-.327-.776-.934-1.161-.931a2.228,2.228,0,0,1-2.588-2.29,3.219,3.219,0,0,0-.683-1.642,2.262,2.262,0,0,1,.21-3.454c.786-.785.7-1.434-.541-1.982-1.386,2.03-3.011,1.422-5.078.7-2.3-.8-3.326-2.01-3.123-4.98-.839.73-1.521,1.06-1.5,1.349.137,2.343-1.338,3.051-3.229,3.442a2.251,2.251,0,0,0-.962.471,2.048,2.048,0,0,1-3.143-.175,6.711,6.711,0,0,0-1.146-.759l-.558.167c.081.591-.046,1.363.282,1.738a2.542,2.542,0,0,1,.212,3.555,3.506,3.506,0,0,0-.613,1.485,2.372,2.372,0,0,1-2.745,2.373c-.347-.012-.714.558-1.072.859.364.279.724.79,1.093.8a2.318,2.318,0,0,1,2.638,2.285,3.6,3.6,0,0,0,.707,1.637,2.35,2.35,0,0,1-.247,3.488c-.783.769-.7,1.446.515,1.939,1.468-1.9,3.225-1.822,5.106-.528a2.065,2.065,0,0,0,.842.295,2.261,2.261,0,0,1,2.161,2.555c-.008.9.215,1.734,1.588,1.192" transform="translate(-67.589 -67.514)" fill="#001a75"/>
    <path id="Path_277" data-name="Path 277" d="M22.749,63.563c1.914,0,3.829.034,5.742-.013,1.178-.029,1.756.314,1.7,1.636-.092,2.269-.067,4.546-.013,6.817.032,1.334-.412,2-1.847,1.981-3.768-.041-7.536-.03-11.3.015-1.372.016-1.948-.526-1.909-1.922.065-2.271.045-4.546.008-6.818-.02-1.207.445-1.739,1.7-1.7,1.972.063,3.947.017,5.921.017v-.014m-5.412,8.153H27.922V65.859H17.337Z" transform="translate(-9.674 -40.661)" fill="#001a75"/>
    <path id="Path_278" data-name="Path 278" d="M22.591,113.27c-1.914,0-3.83-.035-5.743.014-1.109.028-1.695-.353-1.685-1.528.021-2.453.014-4.906,0-7.359a1.337,1.337,0,0,1,1.536-1.53q6.013.012,12.026.005c1.021,0,1.517.407,1.49,1.515-.058,2.392-.055,4.786-.013,7.178.023,1.344-.6,1.778-1.871,1.735-1.912-.065-3.828-.017-5.743-.017v-.014m-5.159-2.258h10.51v-5.9H17.432Z" transform="translate(-9.702 -65.819)" fill="#001a75"/>
    <path id="Path_279" data-name="Path 279" d="M22.813,142.435c1.917,0,3.835.034,5.75-.013,1.135-.027,1.647.407,1.628,1.572-.037,2.4-.032,4.792-.006,7.188.012,1.143-.514,1.631-1.632,1.625q-5.93-.031-11.86-.024c-1.035,0-1.548-.438-1.54-1.507.019-2.4.032-4.793-.008-7.188-.021-1.241.531-1.71,1.738-1.682,1.976.045,3.953.012,5.93.012v.017m-5.4,8.092H27.9v-5.857H17.311c0,1.614-.007,3.1,0,4.583,0,.4.061.807.1,1.274" transform="translate(-9.69 -91.116)" fill="#001a75"/>
    <path id="Path_280" data-name="Path 280" d="M71.077,154.418c1.888-1.594,3.621-3.068,5.367-4.527.646-.54,1.433-1.268,2.086-.255.226.351-.189,1.438-.629,1.84-1.9,1.734-3.935,3.324-5.893,5-1.005.858-1.789.781-2.49-.366-.624-1.021-1.386-1.968-1.913-3.034-.2-.395.106-1.035.181-1.563.519.132,1.2.1,1.523.429a19.07,19.07,0,0,1,1.768,2.481" transform="translate(-43.215 -95.418)" fill="#001a75"/>
    <path id="Path_281" data-name="Path 281" d="M71.313,111.782c1.913-1.615,3.651-3.173,5.5-4.583.475-.362,1.3-.259,1.97-.37-.19.636-.182,1.488-.6,1.871-1.9,1.733-3.938,3.306-5.878,4.993-1.084.942-1.872.817-2.6-.4a26.742,26.742,0,0,1-1.714-2.725c-.221-.5.05-1.219.1-1.84.539.21,1.22.282,1.585.659a17.111,17.111,0,0,1,1.635,2.392" transform="translate(-43.45 -68.354)" fill="#001a75"/>
    <path id="Path_282" data-name="Path 282" d="M71.084,68.572c1.926-1.587,3.687-3.131,5.564-4.517.464-.342,1.308-.169,1.978-.232-.227.587-.29,1.354-.707,1.728C76,67.273,73.972,68.874,72,70.539c-1,.848-1.794.772-2.492-.388-.618-1.027-1.393-1.969-1.92-3.036-.189-.383.142-1.024.235-1.547.514.139,1.2.117,1.507.449a20.571,20.571,0,0,1,1.753,2.555" transform="translate(-43.21 -40.837)" fill="#001a75"/>
    <path id="Path_283" data-name="Path 283" d="M130.043,137.607a7.2,7.2,0,0,1,14.395,0,7.2,7.2,0,1,1-14.395,0m2.148-.125a5.048,5.048,0,1,0,10.093.162,5.047,5.047,0,0,0-4.987-5.076,4.935,4.935,0,0,0-5.106,4.913" transform="translate(-83.207 -83.464)" fill="#001a75"/>
  </g>
</svg>
